<?xml version="1.0" encoding="utf-8"?>
<!-- Generator: Adobe Illustrator 26.1.0, SVG Export Plug-In . SVG Version: 6.00 Build 0)  -->
<svg version="1.1" id="Layer_1" xmlns="http://www.w3.org/2000/svg" xmlns:xlink="http://www.w3.org/1999/xlink" x="0px" y="0px"
	 viewBox="0 0 85.0393677 85.0393677" style="enable-background:new 0 0 85.0393677 85.0393677;" xml:space="preserve">
<style type="text/css">
	
		.st0{fill-rule:evenodd;clip-rule:evenodd;fill:#FFFFFF;stroke:#0000FF;stroke-width:0.2834646;stroke-linecap:round;stroke-linejoin:round;stroke-miterlimit:10;}
	.st1{fill:#FFFFFF;stroke:#0000FF;stroke-width:0.2834646;stroke-linecap:round;stroke-linejoin:round;stroke-miterlimit:10;}
	
		.st2{fill-rule:evenodd;clip-rule:evenodd;fill:#0000FF;stroke:#0000FF;stroke-width:0.2834646;stroke-linecap:round;stroke-linejoin:round;stroke-miterlimit:10;}
</style>
<g>
	<g id="HATCH_00000177485277172369186170000012118832626149241485_">
		<polygon class="st0" points="34.6493416,37.656292 34.6918449,37.7913284 34.7164955,37.92836 34.7238503,38.0559959 
			34.7144508,38.2001953 34.6975746,38.2876587 34.648468,38.4579582 34.5939713,38.5765419 34.5205307,38.6951904 
			34.4331856,38.8026733 34.3391762,38.8926697 34.2345963,38.9707642 34.1130142,39.0393867 34.0284233,39.0734863 
			33.8584328,39.1235199 33.7318802,39.1399345 33.5831642,39.1393242 33.462265,39.122963 33.3332062,39.0890083 
			33.2105522,39.0393867 33.0897064,38.9712486 32.9836731,38.8920593 32.8876457,38.7997093 32.7996178,38.690361 
			32.7265739,38.5708427 32.6732788,38.4532547 32.6544533,38.3935356 32.6325951,38.3242111 32.6075249,38.1875114 
			32.5997505,38.0650711 32.6087799,37.9143486 32.6406975,37.7621689 32.6750603,37.654129 32.7303391,37.5340576 
			32.8022079,37.4179649 32.8986015,37.3005295 32.9823494,37.2210579 33.093811,37.1380768 33.2078743,37.0738983 
			33.3258743,37.0254555 33.4606476,36.9893494 33.5913773,36.9720802 33.7339859,36.9722023 33.8372612,36.9846191 
			33.9834061,37.0206985 34.1028824,37.0678101 34.2420769,37.1461754 34.3702049,37.2466583 34.4358826,37.3122444 
			34.5236893,37.4212646 34.5930023,37.533638 34.6493416,37.656292 		"/>
	</g>
	<g id="HATCH_00000068665787360508352220000010947349320278179224_">
		<polygon class="st0" points="33.3332062,46.0899658 33.3708916,46.0744934 33.5056686,46.0383873 33.6363945,46.0211182 
			33.7790031,46.021244 33.8822823,46.0336609 34.0284271,46.0697365 34.1478996,46.1168518 34.2870941,46.1952171 
			34.415226,46.2957001 34.4808998,46.3612823 34.5687065,46.4703026 34.6380196,46.5826797 34.684742,46.6843948 
			34.736866,46.8403702 34.7615128,46.9773979 34.7688713,47.1050377 34.7594719,47.2492371 34.7466354,47.3157616 
			34.6934853,47.507 34.6389923,47.6255836 34.5655518,47.7442322 34.4782066,47.8517151 34.3841934,47.9417076 
			34.2796173,48.0198021 34.1580315,48.0884247 34.0329361,48.1388588 33.90345,48.1725616 33.7768974,48.1889763 
			33.6281815,48.1883621 33.5072823,48.1720047 33.3782234,48.1380501 33.2555695,48.0884247 33.1347275,48.0202866 
			33.0286903,47.9411011 32.932663,47.8487511 32.844635,47.739399 32.7715912,47.6198845 32.7182961,47.5022926 
			32.6776161,47.3732529 32.6525459,47.2365532 32.6447678,47.1141129 32.653801,46.9633904 32.677784,46.8361359 
			32.7200813,46.7031708 32.7753563,46.5830956 32.847229,46.4670029 32.9436226,46.3495674 33.0273705,46.2700958 
			33.1388321,46.1871147 33.2528954,46.1229362 33.3332062,46.0899658 		"/>
	</g>
	<g id="HATCH_00000034805224105986445800000010046092719903364240_">
		<polygon class="st0" points="41.5024071,38.2876587 41.4824562,38.2243805 41.457386,38.0876808 41.4496117,37.9652405 
			41.4586411,37.814518 41.4924774,37.656292 41.5249214,37.5542984 41.5801964,37.4342232 41.6520691,37.3181305 
			41.7484627,37.200695 41.8322105,37.1212234 41.9436722,37.0382423 42.0577354,36.9740639 42.1757317,36.925621 
			42.3105087,36.8895149 42.4412346,36.8722458 42.5838432,36.8723717 42.6871223,36.8847885 42.8332672,36.9208641 
			42.9527397,36.9679794 43.0919342,37.0463448 43.2200661,37.1468239 43.2857399,37.21241 43.3735466,37.3214302 
			43.4428635,37.4338074 43.4992027,37.5564575 43.5256462,37.64048 43.5663528,37.8285255 43.5737114,37.9561653 
			43.564312,38.1003647 43.5260735,38.2718506 43.4983253,38.3581276 43.4438324,38.4767113 43.3703918,38.5953598 
			43.2830467,38.7028427 43.1890335,38.7928352 43.0844574,38.8709297 42.9628716,38.9395523 42.8592491,38.9813271 
			42.7082901,39.0236893 42.5817375,39.0401039 42.4330215,39.0394897 42.3121223,39.0231323 42.164032,38.9814758 
			42.0604134,38.9395523 41.9395676,38.8714142 41.8335304,38.7922249 41.7375031,38.6998749 41.6494751,38.5905266 
			41.5764313,38.4710121 41.5231361,38.3534203 41.5024071,38.2876587 		"/>
	</g>
	<g id="HATCH_00000038383384667607400810000003407109998734759812_">
		<polygon class="st0" points="42.164032,45.9431076 42.2852249,45.9106407 42.4159546,45.8933716 42.5585632,45.8934937 
			42.6618385,45.9059105 42.8079834,45.9419899 42.8592529,45.962204 42.9274597,45.9891014 43.0666542,46.0674667 
			43.1947823,46.1679497 43.2604599,46.233532 43.3482666,46.342556 43.4175797,46.4549294 43.4739189,46.5775833 
			43.5172615,46.7172852 43.5410728,46.8496513 43.5484276,46.9772873 43.5390282,47.1214867 43.5136566,47.2529793 
			43.4828835,47.3486557 43.4185486,47.4978333 43.345108,47.6164818 43.2577629,47.7239647 43.1637497,47.813961 
			43.0591736,47.8920555 42.9375877,47.9606781 42.8124962,48.0111084 42.6830063,48.0448112 42.5564575,48.0612259 
			42.4077377,48.0606155 42.2868423,48.0442543 42.1577835,48.0102997 42.0351295,47.9606781 41.9142838,47.89254 
			41.8082504,47.8133507 41.7122231,47.7210007 41.6241951,47.6116524 41.5511475,47.4921341 41.4978561,47.3745422 
			41.4793243,47.3157616 41.4571724,47.2455025 41.4321022,47.1088028 41.4243279,46.9863625 41.4333572,46.83564 
			41.4649773,46.6843948 41.4996376,46.5754204 41.5549164,46.455349 41.6267853,46.3392525 41.7231789,46.2218208 
			41.8069267,46.1423492 41.9183884,46.0593681 42.0324516,45.9951897 42.164032,45.9431076 		"/>
	</g>
	<g id="HATCH_00000092423744287562099050000006226263199972926367_">
		<polygon class="st0" points="51.7381859,38.9429245 51.6756592,38.968132 51.5461731,39.0018349 51.4196205,39.0182495 
			51.2709045,39.0176353 51.1500053,39.0012741 51.0429649,38.973114 50.8982964,38.9176979 50.7774506,38.8495598 
			50.6714134,38.7703705 50.575386,38.6780205 50.4873581,38.5686722 50.4143143,38.4491577 50.3610191,38.3315659 
			50.3421936,38.2718468 50.3203392,38.2025261 50.295269,38.0658264 50.2874947,37.9433861 50.296524,37.7926636 
			50.3284378,37.64048 50.3628044,37.5324402 50.4180794,37.4123688 50.4899521,37.2962761 50.5863457,37.1788406 
			50.6700935,37.099369 50.7815552,37.0163879 50.8956184,36.9522095 51.0136147,36.9037666 51.1483917,36.8676605 
			51.2791176,36.8503914 51.4217262,36.8505173 51.5250053,36.8629341 51.6711502,36.8990097 51.7906227,36.946125 
			51.929821,37.0244865 52.0579491,37.1249695 52.1236229,37.1905556 52.2114296,37.2995758 52.2807465,37.4119492 
			52.3370857,37.5346031 52.3795891,37.6696396 52.4042358,37.8066711 52.4115944,37.9343109 52.402195,38.0785065 
			52.3768234,38.2099991 52.3362083,38.3362732 52.2817154,38.4548569 52.2082748,38.5735016 52.1209297,38.6809883 
			52.0269165,38.7709808 51.9223404,38.8490753 51.8007545,38.9176979 51.7381859,38.9429245 		"/>
	</g>
	<g id="HATCH_00000077319550269078366470000007612821024597582237_">
		<polygon class="st0" points="51.0429649,46.0506401 51.177742,46.014534 51.3084679,45.9972649 51.4510765,45.9973869 
			51.5543556,46.0098038 51.7005005,46.0458832 51.7381859,46.0607452 51.819973,46.0929947 51.9591713,46.17136 
			52.0872993,46.271843 52.1529732,46.337429 52.2407799,46.4464493 52.3100967,46.5588226 52.366436,46.6814766 
			52.4089394,46.8165131 52.4335861,46.9535446 52.4409447,47.0811806 52.4315453,47.2253799 52.4061737,47.3568726 
			52.3655586,47.4831467 52.3110657,47.6017265 52.2376251,47.7203751 52.15028,47.827858 52.0562668,47.9178543 
			51.9516907,47.9959488 51.8301048,48.0645714 51.7050095,48.1150055 51.5755234,48.1487045 51.4489708,48.1651192 
			51.3002548,48.1645088 51.1793556,48.1481476 51.0503006,48.1141968 50.9276466,48.0645714 50.8068008,47.9964333 
			50.7007637,47.917244 50.6047363,47.824894 50.5167084,47.7155457 50.4436646,47.5960274 50.3903694,47.4784393 
			50.3715439,47.4187202 50.3496895,47.3493958 50.3246193,47.2126961 50.3168449,47.0902557 50.3258743,46.939537 
			50.3577881,46.7873535 50.3800774,46.7172852 50.4474297,46.5592422 50.5193024,46.4431496 50.615696,46.3257141 
			50.6994438,46.2462425 50.8109055,46.1632614 50.9249687,46.0990829 51.0429649,46.0506401 		"/>
	</g>
	<g id="LWPOLYLINE_00000046315791086340777580000012119322239236311987_">
		<line class="st1" x1="51.0436172" y1="46.0482712" x2="51.0436172" y2="38.972084"/>
	</g>
	<g id="LWPOLYLINE_00000103256168141668500040000012605510183872951460_">
		<polyline class="st1" points="51.0436172,46.0482712 51.1773186,46.0143318 51.3110199,45.9973602 51.4505386,45.9973602 
			51.5551758,46.0086746 		"/>
	</g>
	<g id="LWPOLYLINE_00000081621919859909813410000006101437056081711532_">
		<polyline class="st1" points="51.5551758,46.0086746 51.7005043,46.0482712 51.7353821,46.0595818 		"/>
	</g>
	<g id="LWPOLYLINE_00000141418397610767439330000002856611916631666816_">
		<line class="st1" x1="51.7353821" y1="38.9438019" x2="51.7353821" y2="46.0595818"/>
	</g>
	<g id="LWPOLYLINE_00000026874778137773763670000012929153034504530616_">
		<polyline class="st1" points="51.7353821,38.9438019 51.6772499,38.9664268 51.5435486,39.0003662 51.4214706,39.017334 
			51.2703285,39.017334 51.1482544,39.0003662 51.0436172,38.972084 		"/>
	</g>
	<g id="LWPOLYLINE_00000144303948789732345210000003314240088463779718_">
		<line class="st1" x1="34.0284653" y1="39.0738983" x2="34.0284653" y2="46.0708961"/>
	</g>
	<g id="LWPOLYLINE_00000160910371018245721480000012308722109759986870_">
		<polyline class="st1" points="34.0284653,39.0738983 33.8598824,39.1248055 33.7319908,39.141777 33.5808487,39.141777 
			33.4645882,39.1248055 33.330883,39.0908699 		"/>
	</g>
	<g id="LWPOLYLINE_00000040534240006947756140000004680798520027320227_">
		<line class="st1" x1="33.330883" y1="46.0878639" x2="33.330883" y2="39.0908699"/>
	</g>
	<g id="LWPOLYLINE_00000149367876925078941670000014910004772749983123_">
		<polyline class="st1" points="33.330883,46.0878639 33.3715744,46.0765533 33.5052795,46.0369568 33.6389809,46.019989 
			33.7784996,46.019989 33.8831329,46.0312996 		"/>
	</g>
	<g id="LWPOLYLINE_00000182491153301950533020000017792046692487737769_">
		<line class="st1" x1="33.8831329" y1="46.0312996" x2="34.0284653" y2="46.0708961"/>
	</g>
	<g id="LWPOLYLINE_00000140715441466132511330000009793204978261583293_">
		<line class="st1" x1="42.1669044" y1="45.9407959" x2="42.1669044" y2="38.9833946"/>
	</g>
	<g id="LWPOLYLINE_00000067202090346270225730000011060067252865721513_">
		<polyline class="st1" points="42.1669044,45.9407959 42.2831688,45.9125137 42.4168701,45.895546 42.556385,45.895546 
			42.6610222,45.9068604 		"/>
	</g>
	<g id="LWPOLYLINE_00000157273039842354064570000010259789829967042972_">
		<polyline class="st1" points="42.6610222,45.9068604 42.8063507,45.9407959 42.8586693,45.9634247 		"/>
	</g>
	<g id="LWPOLYLINE_00000129184614315904755750000005239004912718267279_">
		<line class="st1" x1="42.8586693" y1="38.9833946" x2="42.8586693" y2="45.9634247"/>
	</g>
	<g id="LWPOLYLINE_00000157265802181186629070000008835441282222944703_">
		<polyline class="st1" points="42.8586693,38.9833946 42.7075272,39.0229912 42.5796394,39.039959 42.4343109,39.039959 
			42.312233,39.0229912 42.1669044,38.9833946 		"/>
	</g>
	<g id="LWPOLYLINE_00000070821757434995438530000000022886370499959978_">
		<line class="st1" x1="43.4806786" y1="47.349247" x2="50.3518486" y2="47.349247"/>
	</g>
	<g id="LWPOLYLINE_00000106856747706131084870000016522944667462322328_">
		<polyline class="st1" points="50.3518486,47.349247 50.3227806,47.2134933 50.3169708,47.0890503 50.3285942,46.9419861 
			50.3576622,46.7892609 		"/>
	</g>
	<g id="LWPOLYLINE_00000078753870871837780240000009721191384449007289_">
		<line class="st1" x1="50.3576622" y1="46.7892609" x2="50.3809128" y2="46.7157288"/>
	</g>
	<g id="LWPOLYLINE_00000094611905099124262570000016614504475652694420_">
		<line class="st1" x1="43.5155602" y1="46.7157288" x2="50.3809128" y2="46.7157288"/>
	</g>
	<g id="LWPOLYLINE_00000010286294447440956780000004223738134251435199_">
		<polyline class="st1" points="43.5155602,46.7157288 43.5388107,46.8514824 43.5504379,46.9759216 43.5388107,47.1229897 
			43.5155602,47.2530861 43.4806786,47.349247 		"/>
	</g>
	<g id="LWPOLYLINE_00000011714003802723764940000015182612441840538550_">
		<line class="st1" x1="41.4925766" y1="37.6541367" x2="34.6504745" y2="37.6541367"/>
	</g>
	<g id="LWPOLYLINE_00000101078493780326563240000018067997071975163554_">
		<polyline class="st1" points="34.6504745,37.6541367 34.6911659,37.7898903 34.7144165,37.9256439 34.7260437,38.0557442 
			34.7144165,38.2028084 34.6969795,38.2876549 		"/>
	</g>
	<g id="LWPOLYLINE_00000098180267656896518080000004573294837095205519_">
		<line class="st1" x1="41.5042038" y1="38.2876549" x2="34.6969795" y2="38.2876549"/>
	</g>
	<g id="LWPOLYLINE_00000157307857299623313080000015701796917322648218_">
		<polyline class="st1" points="41.5042038,38.2876549 41.4809494,38.2254372 41.457695,38.0896797 41.4518852,37.9652405 
			41.457695,37.8125153 41.4925766,37.6541367 		"/>
	</g>
	<g id="LWPOLYLINE_00000026160903383150261390000007918063042370689469_">
		<polyline class="st1" points="34.6504745,37.6541367 34.6911659,37.7898903 34.7144165,37.9256439 34.7260437,38.0557442 
			34.7144165,38.2028084 34.6969795,38.2876549 		"/>
	</g>
	<g id="LWPOLYLINE_00000094603203455606309580000005045041324276515245_">
		<polyline class="st1" points="34.6969795,38.2876549 34.6504745,38.4573479 34.5923424,38.5761337 34.522583,38.6949196 
			34.4353867,38.8023911 34.3365631,38.8928947 34.231926,38.972084 34.1156616,39.039959 34.0284653,39.0738983 		"/>
	</g>
	<g id="LWPOLYLINE_00000130619704301925655760000009309298790176304306_">
		<polyline class="st1" points="34.0284653,39.0738983 33.8598824,39.1248055 33.7319908,39.141777 33.5808487,39.141777 
			33.4645882,39.1248055 33.330883,39.0908699 		"/>
	</g>
	<g id="LWPOLYLINE_00000052072654752596953850000012388509669954527877_">
		<polyline class="st1" points="33.330883,39.0908699 33.2088051,39.039959 33.0925446,38.972084 32.9820938,38.8928947 
			32.8890839,38.8023911 32.8018837,38.6892624 32.7263145,38.5704765 32.673996,38.4516907 32.6565552,38.3951302 		"/>
	</g>
	<g id="LWPOLYLINE_00000046311177911386523700000011470959696940493961_">
		<polyline class="st1" points="32.6565552,38.3951302 32.6333046,38.3215942 32.6100502,38.1858406 32.598423,38.0670547 
			32.6100502,37.9143333 32.6391144,37.7616081 		"/>
	</g>
	<g id="LWPOLYLINE_00000075158507674079776510000008231504156537927607_">
		<polyline class="st1" points="32.6391144,37.7616081 32.673996,37.6541367 32.7321281,37.5353508 32.8018837,37.4165688 
			32.9007072,37.2977829 32.9820938,37.2185936 33.0925446,37.1394005 33.2088051,37.0715256 33.3250694,37.0262756 
			33.4587746,36.9866791 33.5924759,36.9697113 33.7319908,36.9697113 33.836628,36.9866791 		"/>
	</g>
	<g id="LWPOLYLINE_00000105427483176951449380000002998270227236881337_">
		<polyline class="st1" points="33.836628,36.9866791 33.9819603,37.0206184 34.1040344,37.0658684 34.2435532,37.1450577 
			34.3714409,37.2468758 34.4353867,37.3147507 34.522583,37.4222221 34.5923424,37.5353508 34.6504745,37.6541367 		"/>
	</g>
	<g id="LWPOLYLINE_00000136405510272778653620000000012142362383915445_">
		<polyline class="st1" points="33.330883,46.0878639 33.3715744,46.0765533 33.5052795,46.0369568 33.6389809,46.019989 
			33.7784996,46.019989 33.8831329,46.0312996 		"/>
	</g>
	<g id="LWPOLYLINE_00000020384187879511975430000007564065310767891076_">
		<line class="st1" x1="33.8831329" y1="46.0312996" x2="34.0284653" y2="46.0708961"/>
	</g>
	<g id="LWPOLYLINE_00000030477014326387332650000002263243527079935129_">
		<polyline class="st1" points="34.0284653,46.0708961 34.1505394,46.1161461 34.2842445,46.1953354 34.4179459,46.2971535 
			34.4818916,46.3593712 34.569088,46.4724998 34.6388474,46.5799751 34.6853523,46.6817894 		"/>
	</g>
	<g id="LWPOLYLINE_00000035511559126436963570000017513116282083956368_">
		<polyline class="st1" points="34.6853523,46.6817894 34.7376709,46.840168 34.7609253,46.9759216 34.7667351,47.1060219 
			34.7609253,47.2474327 34.7492981,47.3153076 		"/>
	</g>
	<g id="LWPOLYLINE_00000123418046315398706020000005211519004446734013_">
		<polyline class="st1" points="34.7492981,47.3153076 34.6911659,47.5076256 34.6388474,47.6264114 34.5632744,47.7451973 
			34.476078,47.8526688 34.3830681,47.9431725 34.2784309,48.0223618 34.156353,48.0902367 34.0342789,48.1411476 
			33.9005737,48.1750832 33.7784996,48.1863976 33.6273537,48.1863976 33.5052795,48.1694298 33.377388,48.1354904 
			33.2553139,48.0902367 33.1332359,48.0223618 33.0285988,47.9431725 32.9297752,47.8470116 32.8425789,47.7395401 
			32.7728195,47.6207542 32.7205009,47.5019722 32.6798096,47.3718719 32.6507416,47.2361183 32.644928,47.1116791 
			32.6565552,46.9646111 32.6798096,46.8345108 32.7205009,46.7044144 32.7728195,46.5856285 32.8483887,46.4668465 
			32.9414024,46.3480606 33.0285988,46.2688713 33.1390495,46.189682 33.2553139,46.1218033 33.330883,46.0878639 		"/>
	</g>
	<g id="LWPOLYLINE_00000049927659161003378700000013875646339606686851_">
		<polyline class="st1" points="41.5042038,38.2876549 41.4809494,38.2254372 41.457695,38.0896797 41.4518852,37.9652405 
			41.457695,37.8125153 41.4925766,37.6541367 		"/>
	</g>
	<g id="LWPOLYLINE_00000078743364099648221220000015852537339658311099_">
		<polyline class="st1" points="41.4925766,37.6541367 41.5274544,37.5523224 41.5797729,37.4335365 41.6495323,37.3204079 
			41.7483559,37.201622 41.8297386,37.1224327 41.946003,37.0375862 42.0564537,36.9753647 42.1785316,36.9244576 
			42.312233,36.8905182 42.4401207,36.8735504 42.585453,36.8735504 42.6842766,36.8848648 		"/>
	</g>
	<g id="LWPOLYLINE_00000161619554722867965480000003018265096782140545_">
		<polyline class="st1" points="42.6842766,36.8848648 42.8354187,36.9188004 42.951683,36.9697113 43.091198,37.0489006 
			43.2190857,37.1450577 43.2830315,37.2129364 43.3760414,37.3204079 43.4399872,37.4335365 43.4981194,37.5579758 
			43.5271873,37.6428223 		"/>
	</g>
	<g id="LWPOLYLINE_00000174592329404364026190000013122390220774619040_">
		<polyline class="st1" points="43.5271873,37.6428223 43.5678787,37.8294868 43.5736923,37.9539261 43.5620651,38.1009941 
			43.5271873,38.2706871 		"/>
	</g>
	<g id="LWPOLYLINE_00000170243776792255390680000000084183294820184721_">
		<polyline class="st1" points="43.5271873,38.2706871 43.4981194,38.3555336 43.4458008,38.4743195 43.3702316,38.5931015 
			43.2830315,38.7005768 43.1900215,38.7910767 43.0853844,38.8702698 42.9633064,38.9381447 42.8586693,38.9833946 		"/>
	</g>
	<g id="LWPOLYLINE_00000109721594417088119850000015777670967790805947_">
		<polyline class="st1" points="42.8586693,38.9833946 42.7075272,39.0229912 42.5796394,39.039959 42.4343109,39.039959 
			42.312233,39.0229912 42.1669044,38.9833946 		"/>
	</g>
	<g id="LWPOLYLINE_00000008827787789359433120000016467617395194076580_">
		<polyline class="st1" points="42.1669044,38.9833946 42.0622673,38.9381447 41.9401894,38.8702698 41.8355522,38.7910767 
			41.7367287,38.7005768 41.6495323,38.5931015 41.5739594,38.4686623 41.5216408,38.3555336 41.5042038,38.2876549 		"/>
	</g>
	<g id="LWPOLYLINE_00000096776330480386441220000005889757617017538489_">
		<polyline class="st1" points="42.1669044,45.9407959 42.2831688,45.9125137 42.4168701,45.895546 42.556385,45.895546 
			42.6610222,45.9068604 		"/>
	</g>
	<g id="LWPOLYLINE_00000070841300771358849520000011906737926847677104_">
		<polyline class="st1" points="42.6610222,45.9068604 42.8063507,45.9407959 42.8586693,45.9634247 		"/>
	</g>
	<g id="LWPOLYLINE_00000015321609955819233020000016785297876645021871_">
		<polyline class="st1" points="42.8586693,45.9634247 42.9284286,45.9917068 43.0679436,46.065239 43.1958351,46.1670532 
			43.2597809,46.2349319 43.3469772,46.3424034 43.4167366,46.4555321 43.4748688,46.5799751 43.5155602,46.7157288 		"/>
	</g>
	<g id="LWPOLYLINE_00000119097706545829335110000008982927478075281068_">
		<polyline class="st1" points="43.5155602,46.7157288 43.5388107,46.8514824 43.5504379,46.9759216 43.5388107,47.1229897 
			43.5155602,47.2530861 43.4806786,47.349247 		"/>
	</g>
	<g id="LWPOLYLINE_00000035496233428909208060000015203596699105423513_">
		<polyline class="st1" points="43.4806786,47.349247 43.4167366,47.496315 43.3469772,47.615097 43.2597809,47.7225723 
			43.1609573,47.8130722 43.0563202,47.8922653 42.9400558,47.9601402 42.8121643,48.0110474 42.6842766,48.0449867 
			42.556385,48.0619583 42.4052429,48.0619583 42.2889786,48.0449867 42.1552773,48.0110474 42.0331993,47.9601402 
			41.9169388,47.8922653 41.806488,47.8130722 41.7134743,47.7225723 41.6262779,47.6094437 41.5507088,47.4906578 
			41.4983902,47.3718719 41.4809494,47.3153076 		"/>
	</g>
	<g id="LWPOLYLINE_00000119118071375160052870000011460514253206122169_">
		<polyline class="st1" points="41.4809494,47.3153076 41.457695,47.2474327 41.4344444,47.1060219 41.4228172,46.987236 
			41.4344444,46.8345108 41.4635086,46.6817894 		"/>
	</g>
	<g id="LWPOLYLINE_00000011713623747086953960000006267000717501510830_">
		<polyline class="st1" points="41.4635086,46.6817894 41.4983902,46.5743179 41.5565224,46.4555321 41.6262779,46.3367462 
			41.7251015,46.2236176 41.806488,46.1444283 41.9169388,46.0595818 42.0331993,45.9973602 42.1669044,45.9407959 		"/>
	</g>
	<g id="LWPOLYLINE_00000080895248467584846080000014940631107746771844_">
		<polyline class="st1" points="51.7353821,38.9438019 51.6772499,38.9664268 51.5435486,39.0003662 51.4214706,39.017334 
			51.2703285,39.017334 51.1482544,39.0003662 51.0436172,38.972084 		"/>
	</g>
	<g id="LWPOLYLINE_00000178184102235366421350000002598656670114165124_">
		<polyline class="st1" points="51.0436172,38.972084 50.8982849,38.9155197 50.7762108,38.847641 50.6715736,38.7684517 
			50.5727501,38.677948 50.4855499,38.5704765 50.4157944,38.4516907 50.3634758,38.3329086 50.3402214,38.2706871 		"/>
	</g>
	<g id="LWPOLYLINE_00000096754140614657393720000014056567275250514346_">
		<polyline class="st1" points="50.3402214,38.2706871 50.3227806,38.2028084 50.2937164,38.0670547 50.2879028,37.9426155 
			50.2937164,37.7898903 50.3285942,37.6428223 		"/>
	</g>
	<g id="LWPOLYLINE_00000172433200918311152600000013603002529080814980_">
		<polyline class="st1" points="50.3285942,37.6428223 50.3634758,37.5296936 50.4157944,37.4109116 50.4913635,37.2977829 
			50.5843735,37.178997 50.6715736,37.0998077 50.7820244,37.0149612 50.8982849,36.9527397 51.0145493,36.9018326 
			51.1482544,36.8678932 51.2819557,36.8509254 51.4214706,36.8509254 51.5261078,36.862236 		"/>
	</g>
	<g id="LWPOLYLINE_00000073703972483290509870000006889996243849696702_">
		<polyline class="st1" points="51.5261078,36.862236 51.6714363,36.9018326 51.7935143,36.9470825 51.9272194,37.0262756 
			52.0551071,37.1224327 52.1248665,37.1903114 52.2120628,37.2977829 52.2818222,37.4109116 52.3399544,37.5353508 
			52.3806458,37.6711044 52.4038963,37.8068619 52.4097099,37.9369583 52.4038963,38.0783691 52.3748322,38.2084656 
			52.3341408,38.3385658 52.2818222,38.4573479 52.2062492,38.5761337 52.1190529,38.6836052 52.0260429,38.7684517 
			51.9214058,38.847641 51.7993279,38.9155197 51.7353821,38.9438019 		"/>
	</g>
	<g id="LWPOLYLINE_00000015315708948709380580000015956439504875030459_">
		<polyline class="st1" points="51.0436172,46.0482712 51.1773186,46.0143318 51.3110199,45.9973602 51.4505386,45.9973602 
			51.5551758,46.0086746 		"/>
	</g>
	<g id="LWPOLYLINE_00000047024862706944074600000007942942914613664151_">
		<polyline class="st1" points="51.5551758,46.0086746 51.7005043,46.0482712 51.7353821,46.0595818 		"/>
	</g>
	<g id="LWPOLYLINE_00000162343547636630837360000015134730189828641692_">
		<polyline class="st1" points="51.7353821,46.0595818 51.8225822,46.0935211 51.9562836,46.1727104 52.0899849,46.2745247 
			52.1539307,46.3367462 52.241127,46.4442177 52.3108864,46.5573463 52.3690186,46.6817894 52.4097099,46.817543 
			52.4329643,46.9532967 52.4387779,47.0833969 52.4329643,47.2248039 52.4038963,47.3549042 52.363205,47.4850006 
			52.3108864,47.6037865 52.2353172,47.7225723 52.1481171,47.8300438 52.0551071,47.9205475 51.95047,47.9940796 
			51.828392,48.0619583 51.7063179,48.1128654 51.5784264,48.146801 51.4505386,48.1637726 51.2993965,48.1637726 
			51.1773186,48.146801 51.049427,48.1128654 50.9273529,48.0619583 50.805275,47.9940796 50.7006378,47.9148903 
			50.6076279,47.8243866 50.5146179,47.7169151 50.4448586,47.5981293 50.39254,47.4793434 50.3692894,47.4171257 		"/>
	</g>
	<g id="LWPOLYLINE_00000098940390272499316290000012996580351079958179_">
		<line class="st1" x1="50.3692894" y1="47.4171257" x2="50.3518486" y2="47.349247"/>
	</g>
	<g id="LWPOLYLINE_00000067923201178202199990000017446079242055631768_">
		<polyline class="st1" points="50.3518486,47.349247 50.3227806,47.2134933 50.3169708,47.0890503 50.3285942,46.9419861 
			50.3576622,46.7892609 		"/>
	</g>
	<g id="LWPOLYLINE_00000155106150551527028840000000632240152804824989_">
		<line class="st1" x1="50.3576622" y1="46.7892609" x2="50.3809128" y2="46.7157288"/>
	</g>
	<g id="LWPOLYLINE_00000135669541060145054200000009235158591084712577_">
		<polyline class="st1" points="50.3809128,46.7157288 50.4448586,46.5573463 50.5204315,46.4442177 50.6134415,46.3254356 
			50.7006378,46.2462425 50.8110886,46.1613998 50.9273529,46.0991783 51.0436172,46.0482712 		"/>
	</g>
	<g id="LWPOLYLINE_00000103225917912919077630000013986905965251184051_">
		<line class="st1" x1="42.1669044" y1="45.9407959" x2="42.1669044" y2="38.9833946"/>
	</g>
	<g id="LWPOLYLINE_00000008833086271200561690000017123572454178356380_">
		<line class="st1" x1="41.5042038" y1="38.2876549" x2="34.6969795" y2="38.2876549"/>
	</g>
	<g id="LWPOLYLINE_00000168830018542251012970000000733491799383904697_">
		<line class="st1" x1="42.8586693" y1="38.9833946" x2="42.8586693" y2="45.9634247"/>
	</g>
	<g id="LWPOLYLINE_00000041984839567358528650000000814611241403933569_">
		<line class="st1" x1="41.4925766" y1="37.6541367" x2="34.6504745" y2="37.6541367"/>
	</g>
	<g id="LWPOLYLINE_00000128444555797653759520000018385679940042554518_">
		<line class="st1" x1="43.4806786" y1="47.349247" x2="50.3518486" y2="47.349247"/>
	</g>
	<g id="LWPOLYLINE_00000078749387891410029250000007198289069572680079_">
		<line class="st1" x1="43.5155602" y1="46.7157288" x2="50.3809128" y2="46.7157288"/>
	</g>
	<g id="LWPOLYLINE_00000116201357552316007820000001594666426036500867_">
		<polyline class="st1" points="42.6842766,36.8848648 42.8354187,36.9188004 42.951683,36.9697113 43.091198,37.0489006 
			43.2190857,37.1450577 43.2830315,37.2129364 43.3760414,37.3204079 43.4399872,37.4335365 43.4981194,37.5579758 
			43.5271873,37.6428223 		"/>
	</g>
	<g id="LWPOLYLINE_00000090994970479161195260000008164965597127436733_">
		<polyline class="st1" points="43.5271873,37.6428223 43.5678787,37.8294868 43.5736923,37.9539261 43.5620651,38.1009941 
			43.5271873,38.2706871 		"/>
	</g>
	<g id="LWPOLYLINE_00000023981032358155744650000011658261419152570780_">
		<polyline class="st1" points="43.5271873,38.2706871 43.4981194,38.3555336 43.4458008,38.4743195 43.3702316,38.5931015 
			43.2830315,38.7005768 43.1900215,38.7910767 43.0853844,38.8702698 42.9633064,38.9381447 42.8586693,38.9833946 		"/>
	</g>
	<g id="LWPOLYLINE_00000041284212100742831680000012961962689923019925_">
		<polyline class="st1" points="42.8586693,38.9833946 42.7075272,39.0229912 42.5796394,39.039959 42.4343109,39.039959 
			42.312233,39.0229912 42.1669044,38.9833946 		"/>
	</g>
	<g id="LWPOLYLINE_00000124851097264595436570000010847556398980771504_">
		<polyline class="st1" points="42.1669044,38.9833946 42.0622673,38.9381447 41.9401894,38.8702698 41.8355522,38.7910767 
			41.7367287,38.7005768 41.6495323,38.5931015 41.5739594,38.4686623 41.5216408,38.3555336 41.5042038,38.2876549 		"/>
	</g>
	<g id="LWPOLYLINE_00000116920088885165947230000010703997294132819856_">
		<polyline class="st1" points="41.5042038,38.2876549 41.4809494,38.2254372 41.457695,38.0896797 41.4518852,37.9652405 
			41.457695,37.8125153 41.4925766,37.6541367 		"/>
	</g>
	<g id="LWPOLYLINE_00000056414938140370141780000002553744436938450363_">
		<polyline class="st1" points="41.4925766,37.6541367 41.5274544,37.5523224 41.5797729,37.4335365 41.6495323,37.3204079 
			41.7483559,37.201622 41.8297386,37.1224327 41.946003,37.0375862 42.0564537,36.9753647 42.1785316,36.9244576 
			42.312233,36.8905182 42.4401207,36.8735504 42.585453,36.8735504 42.6842766,36.8848648 		"/>
	</g>
	<g id="LWPOLYLINE_00000066496712639717470480000018151382892113830815_">
		<polyline class="st1" points="51.5261078,36.862236 51.6714363,36.9018326 51.7935143,36.9470825 51.9272194,37.0262756 
			52.0551071,37.1224327 52.1248665,37.1903114 52.2120628,37.2977829 52.2818222,37.4109116 52.3399544,37.5353508 
			52.3806458,37.6711044 52.4038963,37.8068619 52.4097099,37.9369583 52.4038963,38.0783691 52.3748322,38.2084656 
			52.3341408,38.3385658 52.2818222,38.4573479 52.2062492,38.5761337 52.1190529,38.6836052 52.0260429,38.7684517 
			51.9214058,38.847641 51.7993279,38.9155197 51.7353821,38.9438019 		"/>
	</g>
	<g id="LWPOLYLINE_00000026160610165396764090000007948876673519624099_">
		<polyline class="st1" points="51.7353821,38.9438019 51.6772499,38.9664268 51.5435486,39.0003662 51.4214706,39.017334 
			51.2703285,39.017334 51.1482544,39.0003662 51.0436172,38.972084 		"/>
	</g>
	<g id="LWPOLYLINE_00000100372920784637721390000017677280131269868221_">
		<polyline class="st1" points="51.0436172,38.972084 50.8982849,38.9155197 50.7762108,38.847641 50.6715736,38.7684517 
			50.5727501,38.677948 50.4855499,38.5704765 50.4157944,38.4516907 50.3634758,38.3329086 50.3402214,38.2706871 		"/>
	</g>
	<g id="LWPOLYLINE_00000031191318759887904940000007005656374340790409_">
		<polyline class="st1" points="50.3402214,38.2706871 50.3227806,38.2028084 50.2937164,38.0670547 50.2879028,37.9426155 
			50.2937164,37.7898903 50.3285942,37.6428223 		"/>
	</g>
	<g id="LWPOLYLINE_00000049921348735939907890000006516675593802185619_">
		<polyline class="st1" points="50.3285942,37.6428223 50.3634758,37.5296936 50.4157944,37.4109116 50.4913635,37.2977829 
			50.5843735,37.178997 50.6715736,37.0998077 50.7820244,37.0149612 50.8982849,36.9527397 51.0145493,36.9018326 
			51.1482544,36.8678932 51.2819557,36.8509254 51.4214706,36.8509254 51.5261078,36.862236 		"/>
	</g>
	<g id="LWPOLYLINE_00000116948319510284380620000005909730258766282933_">
		<polyline class="st1" points="42.6610222,45.9068604 42.8063507,45.9407959 42.8586693,45.9634247 		"/>
	</g>
	<g id="LWPOLYLINE_00000164508346932793725350000000875697512977604764_">
		<polyline class="st1" points="42.8586693,45.9634247 42.9284286,45.9917068 43.0679436,46.065239 43.1958351,46.1670532 
			43.2597809,46.2349319 43.3469772,46.3424034 43.4167366,46.4555321 43.4748688,46.5799751 43.5155602,46.7157288 		"/>
	</g>
	<g id="LWPOLYLINE_00000022547147890641020250000002244586142725167534_">
		<polyline class="st1" points="43.5155602,46.7157288 43.5388107,46.8514824 43.5504379,46.9759216 43.5388107,47.1229897 
			43.5155602,47.2530861 43.4806786,47.349247 		"/>
	</g>
	<g id="LWPOLYLINE_00000116936051510125548130000014306360120494931871_">
		<polyline class="st1" points="43.4806786,47.349247 43.4167366,47.496315 43.3469772,47.615097 43.2597809,47.7225723 
			43.1609573,47.8130722 43.0563202,47.8922653 42.9400558,47.9601402 42.8121643,48.0110474 42.6842766,48.0449867 
			42.556385,48.0619583 42.4052429,48.0619583 42.2889786,48.0449867 42.1552773,48.0110474 42.0331993,47.9601402 
			41.9169388,47.8922653 41.806488,47.8130722 41.7134743,47.7225723 41.6262779,47.6094437 41.5507088,47.4906578 
			41.4983902,47.3718719 41.4809494,47.3153076 		"/>
	</g>
	<g id="LWPOLYLINE_00000030451401511080575750000011244075874731796864_">
		<polyline class="st1" points="41.4809494,47.3153076 41.457695,47.2474327 41.4344444,47.1060219 41.4228172,46.987236 
			41.4344444,46.8345108 41.4635086,46.6817894 		"/>
	</g>
	<g id="LWPOLYLINE_00000081618336292472562220000011286660984040771232_">
		<polyline class="st1" points="41.4635086,46.6817894 41.4983902,46.5743179 41.5565224,46.4555321 41.6262779,46.3367462 
			41.7251015,46.2236176 41.806488,46.1444283 41.9169388,46.0595818 42.0331993,45.9973602 42.1669044,45.9407959 		"/>
	</g>
	<g id="LWPOLYLINE_00000173142207137875140120000004181158344759306125_">
		<polyline class="st1" points="42.1669044,45.9407959 42.2831688,45.9125137 42.4168701,45.895546 42.556385,45.895546 
			42.6610222,45.9068604 		"/>
	</g>
	<g id="LWPOLYLINE_00000167389752176206110180000010752847587313579936_">
		<line class="st1" x1="33.8831329" y1="46.0312996" x2="34.0284653" y2="46.0708961"/>
	</g>
	<g id="LWPOLYLINE_00000119086603104690968840000010864453662206388155_">
		<polyline class="st1" points="34.0284653,46.0708961 34.1505394,46.1161461 34.2842445,46.1953354 34.4179459,46.2971535 
			34.4818916,46.3593712 34.569088,46.4724998 34.6388474,46.5799751 34.6853523,46.6817894 		"/>
	</g>
	<g id="LWPOLYLINE_00000039825668654646015260000001881938368563777421_">
		<polyline class="st1" points="34.6853523,46.6817894 34.7376709,46.840168 34.7609253,46.9759216 34.7667351,47.1060219 
			34.7609253,47.2474327 34.7492981,47.3153076 		"/>
	</g>
	<g id="LWPOLYLINE_00000032632123827496045640000004301291758769159305_">
		<polyline class="st1" points="34.7492981,47.3153076 34.6911659,47.5076256 34.6388474,47.6264114 34.5632744,47.7451973 
			34.476078,47.8526688 34.3830681,47.9431725 34.2784309,48.0223618 34.156353,48.0902367 34.0342789,48.1411476 
			33.9005737,48.1750832 33.7784996,48.1863976 33.6273537,48.1863976 33.5052795,48.1694298 33.377388,48.1354904 
			33.2553139,48.0902367 33.1332359,48.0223618 33.0285988,47.9431725 32.9297752,47.8470116 32.8425789,47.7395401 
			32.7728195,47.6207542 32.7205009,47.5019722 32.6798096,47.3718719 32.6507416,47.2361183 32.644928,47.1116791 
			32.6565552,46.9646111 32.6798096,46.8345108 32.7205009,46.7044144 32.7728195,46.5856285 32.8483887,46.4668465 
			32.9414024,46.3480606 33.0285988,46.2688713 33.1390495,46.189682 33.2553139,46.1218033 33.330883,46.0878639 		"/>
	</g>
	<g id="LWPOLYLINE_00000161609133823633151360000011547047325913947306_">
		<polyline class="st1" points="33.330883,46.0878639 33.3715744,46.0765533 33.5052795,46.0369568 33.6389809,46.019989 
			33.7784996,46.019989 33.8831329,46.0312996 		"/>
	</g>
	<g id="LWPOLYLINE_00000176036434633472221850000012641163865241645952_">
		<line class="st1" x1="33.330883" y1="46.0878639" x2="33.330883" y2="39.0908699"/>
	</g>
	<g id="LWPOLYLINE_00000072961316158241779800000003637300089008939394_">
		<line class="st1" x1="34.0284653" y1="39.0738983" x2="34.0284653" y2="46.0708961"/>
	</g>
	<g id="LWPOLYLINE_00000076585125463483195100000000375473406641269167_">
		<line class="st1" x1="51.0436172" y1="46.0482712" x2="51.0436172" y2="38.972084"/>
	</g>
	<g id="LWPOLYLINE_00000176010693316708880400000003407048581875240118_">
		<line class="st1" x1="51.7353821" y1="38.9438019" x2="51.7353821" y2="46.0595818"/>
	</g>
	<g id="LWPOLYLINE_00000047741574923418816720000012950472419509711036_">
		<polyline class="st1" points="51.5551758,46.0086746 51.7005043,46.0482712 51.7353821,46.0595818 		"/>
	</g>
	<g id="LWPOLYLINE_00000168111481974090731530000000702842717497272990_">
		<polyline class="st1" points="51.7353821,46.0595818 51.8225822,46.0935211 51.9562836,46.1727104 52.0899849,46.2745247 
			52.1539307,46.3367462 52.241127,46.4442177 52.3108864,46.5573463 52.3690186,46.6817894 52.4097099,46.817543 
			52.4329643,46.9532967 52.4387779,47.0833969 52.4329643,47.2248039 52.4038963,47.3549042 52.363205,47.4850006 
			52.3108864,47.6037865 52.2353172,47.7225723 52.1481171,47.8300438 52.0551071,47.9205475 51.95047,47.9940796 
			51.828392,48.0619583 51.7063179,48.1128654 51.5784264,48.146801 51.4505386,48.1637726 51.2993965,48.1637726 
			51.1773186,48.146801 51.049427,48.1128654 50.9273529,48.0619583 50.805275,47.9940796 50.7006378,47.9148903 
			50.6076279,47.8243866 50.5146179,47.7169151 50.4448586,47.5981293 50.39254,47.4793434 50.3692894,47.4171257 		"/>
	</g>
	<g id="LWPOLYLINE_00000054951453543422010670000006387673714397430701_">
		<line class="st1" x1="50.3692894" y1="47.4171257" x2="50.3518486" y2="47.349247"/>
	</g>
	<g id="LWPOLYLINE_00000163770141492699639950000002034747414801815975_">
		<polyline class="st1" points="50.3518486,47.349247 50.3227806,47.2134933 50.3169708,47.0890503 50.3285942,46.9419861 
			50.3576622,46.7892609 		"/>
	</g>
	<g id="LWPOLYLINE_00000114762450468684863280000010142348194507740596_">
		<line class="st1" x1="50.3576622" y1="46.7892609" x2="50.3809128" y2="46.7157288"/>
	</g>
	<g id="LWPOLYLINE_00000037664023649124474910000008744680224215667863_">
		<polyline class="st1" points="50.3809128,46.7157288 50.4448586,46.5573463 50.5204315,46.4442177 50.6134415,46.3254356 
			50.7006378,46.2462425 50.8110886,46.1613998 50.9273529,46.0991783 51.0436172,46.0482712 		"/>
	</g>
	<g id="LWPOLYLINE_00000084515030451993118170000012456036543768562102_">
		<polyline class="st1" points="51.0436172,46.0482712 51.1773186,46.0143318 51.3110199,45.9973602 51.4505386,45.9973602 
			51.5551758,46.0086746 		"/>
	</g>
	<g id="LWPOLYLINE_00000079451707559776682920000005525775622399922089_">
		<polyline class="st1" points="33.836628,36.9866791 33.9819603,37.0206184 34.1040344,37.0658684 34.2435532,37.1450577 
			34.3714409,37.2468758 34.4353867,37.3147507 34.522583,37.4222221 34.5923424,37.5353508 34.6504745,37.6541367 		"/>
	</g>
	<g id="LWPOLYLINE_00000036942051124274903650000004160942936229644729_">
		<polyline class="st1" points="34.6504745,37.6541367 34.6911659,37.7898903 34.7144165,37.9256439 34.7260437,38.0557442 
			34.7144165,38.2028084 34.6969795,38.2876549 		"/>
	</g>
	<g id="LWPOLYLINE_00000003099687776424954820000008282646238400604077_">
		<polyline class="st1" points="34.6969795,38.2876549 34.6504745,38.4573479 34.5923424,38.5761337 34.522583,38.6949196 
			34.4353867,38.8023911 34.3365631,38.8928947 34.231926,38.972084 34.1156616,39.039959 34.0284653,39.0738983 		"/>
	</g>
	<g id="LWPOLYLINE_00000173864656596443249280000008492947802758364084_">
		<polyline class="st1" points="34.0284653,39.0738983 33.8598824,39.1248055 33.7319908,39.141777 33.5808487,39.141777 
			33.4645882,39.1248055 33.330883,39.0908699 		"/>
	</g>
	<g id="LWPOLYLINE_00000040551968187924584290000013399171691545365654_">
		<polyline class="st1" points="33.330883,39.0908699 33.2088051,39.039959 33.0925446,38.972084 32.9820938,38.8928947 
			32.8890839,38.8023911 32.8018837,38.6892624 32.7263145,38.5704765 32.673996,38.4516907 32.6565552,38.3951302 		"/>
	</g>
	<g id="LWPOLYLINE_00000023992196645138438070000001975177294490290335_">
		<polyline class="st1" points="32.6565552,38.3951302 32.6333046,38.3215942 32.6100502,38.1858406 32.598423,38.0670547 
			32.6100502,37.9143333 32.6391144,37.7616081 		"/>
	</g>
	<g id="LWPOLYLINE_00000173882894601224403020000016017629918086336676_">
		<polyline class="st1" points="32.6391144,37.7616081 32.673996,37.6541367 32.7321281,37.5353508 32.8018837,37.4165688 
			32.9007072,37.2977829 32.9820938,37.2185936 33.0925446,37.1394005 33.2088051,37.0715256 33.3250694,37.0262756 
			33.4587746,36.9866791 33.5924759,36.9697113 33.7319908,36.9697113 33.836628,36.9866791 		"/>
	</g>
	<g id="HATCH_00000063601201251610199520000002923270454129271692_">
		<polygon class="st2" points="51.0429649,38.973114 51.0429649,46.0506401 51.177742,46.014534 51.3084679,45.9972649 
			51.4510765,45.9973869 51.5543556,46.0098038 51.7005005,46.0458832 51.7381859,46.0607452 51.7381859,38.9429245 
			51.6756592,38.968132 51.5461731,39.0018349 51.4196205,39.0182495 51.2709045,39.0176353 51.1500053,39.0012741 
			51.0429649,38.973114 		"/>
	</g>
	<g id="HATCH_00000174573084347436055530000017276847934774916998_">
		<polygon class="st2" points="34.0284271,46.0697365 34.0284233,39.0734863 33.8584328,39.1235199 33.7318802,39.1399345 
			33.5831642,39.1393242 33.462265,39.122963 33.3332062,39.0890083 33.3332062,46.0899658 33.3708916,46.0744934 
			33.5056686,46.0383873 33.6363945,46.0211182 33.7790031,46.021244 33.8822823,46.0336609 34.0284271,46.0697365 		"/>
	</g>
	<g id="HATCH_00000014607405744873532110000010395961414472541094_">
		<polygon class="st2" points="42.164032,38.9814758 42.164032,45.9431076 42.2852249,45.9106407 42.4159546,45.8933716 
			42.5585632,45.8934937 42.6618385,45.9059105 42.8079834,45.9419899 42.8592529,45.962204 42.8592491,38.9813271 
			42.7082901,39.0236893 42.5817375,39.0401039 42.4330215,39.0394897 42.3121223,39.0231323 42.164032,38.9814758 		"/>
	</g>
	<g id="HATCH_00000055684740282790173170000008447471417770956477_">
		<polygon class="st2" points="43.4828835,47.3486557 50.3496895,47.3493958 50.3246193,47.2126961 50.3168449,47.0902557 
			50.3258743,46.939537 50.3577881,46.7873535 50.3800774,46.7172852 43.5172615,46.7172852 43.5410728,46.8496513 
			43.5484276,46.9772873 43.5390282,47.1214867 43.5136566,47.2529793 43.4828835,47.3486557 		"/>
	</g>
	<g id="HATCH_00000092438611885810666830000017587834538067128468_">
		<polygon class="st2" points="41.4924774,37.656292 34.6493416,37.656292 34.6918449,37.7913284 34.7164955,37.92836 
			34.7238503,38.0559959 34.7144508,38.2001953 34.6975746,38.2876587 41.5024071,38.2876587 41.4824562,38.2243805 
			41.457386,38.0876808 41.4496117,37.9652405 41.4586411,37.814518 41.4924774,37.656292 		"/>
	</g>
</g>
</svg>
