<?xml version="1.0" encoding="utf-8"?>
<!-- Generator: Adobe Illustrator 26.1.0, SVG Export Plug-In . SVG Version: 6.00 Build 0)  -->
<svg version="1.1" id="Layer_1" xmlns="http://www.w3.org/2000/svg" xmlns:xlink="http://www.w3.org/1999/xlink" x="0px" y="0px"
	 viewBox="0 0 17.2 17" style="enable-background:new 0 0 17.2 17;" xml:space="preserve">
<style type="text/css">
	.st0{fill-rule:evenodd;clip-rule:evenodd;fill:#FFFFFF;}
	.st1{fill:none;stroke:#EB4B00;stroke-width:0.2835;stroke-linecap:round;stroke-linejoin:round;stroke-miterlimit:10;}
</style>
<g id="HATCH_00000071553209478357434550000003140995370097452165_">
	<polygon class="st0" points="3,13.6 3,3.7 4,3.7 4,3.1 13.8,3.1 13.8,4 17.1,4 17.1,0.1 13.8,0.1 13.8,1.1 4,1.1 4,0.3 0.1,0.3 
		0.1,3.7 1.1,3.7 1.1,13.6 0.1,13.6 0.1,16.9 4,16.9 4,13.6 3,13.6 	"/>
</g>
<g id="LWPOLYLINE_00000145042603350446704390000002349472304469515154_">
	<line class="st1" x1="3" y1="13.6" x2="3" y2="3.7"/>
</g>
<g id="LWPOLYLINE_00000163034519198286065640000017931894495244188567_">
	<line class="st1" x1="3" y1="3.7" x2="4" y2="3.7"/>
</g>
<g id="LWPOLYLINE_00000106861604623763827800000015339650059220680618_">
	<line class="st1" x1="4" y1="3.7" x2="4" y2="3.1"/>
</g>
<g id="LWPOLYLINE_00000158002015487175966570000014667751118454171805_">
	<line class="st1" x1="4" y1="3.1" x2="13.8" y2="3.1"/>
</g>
<g id="LWPOLYLINE_00000048485434392153996530000008538417958010184861_">
	<line class="st1" x1="13.8" y1="3.1" x2="13.8" y2="4"/>
</g>
<g id="LWPOLYLINE_00000170959546453303227980000012578938771092908195_">
	<line class="st1" x1="13.8" y1="4" x2="17.1" y2="4"/>
</g>
<g id="LWPOLYLINE_00000042722573340808565310000010335595325914534038_">
	<line class="st1" x1="17.1" y1="4" x2="17.1" y2="0.1"/>
</g>
<g id="LWPOLYLINE_00000134967035497975353380000002518076433045772709_">
	<line class="st1" x1="17.1" y1="0.1" x2="13.8" y2="0.1"/>
</g>
<g id="LWPOLYLINE_00000043428848084638605120000007159542276809858452_">
	<line class="st1" x1="13.8" y1="0.1" x2="13.8" y2="1.1"/>
</g>
<g id="LWPOLYLINE_00000075870560742930319760000007535721264630632362_">
	<line class="st1" x1="13.8" y1="1.1" x2="4" y2="1.1"/>
</g>
<g id="LWPOLYLINE_00000155142871153965824520000004316397614822524091_">
	<line class="st1" x1="4" y1="1.1" x2="4" y2="0.3"/>
</g>
<g id="LWPOLYLINE_00000043448193409146585960000016128696148936588420_">
	<line class="st1" x1="4" y1="0.3" x2="0.1" y2="0.3"/>
</g>
<g id="LWPOLYLINE_00000172408603129731872900000018150499176152916404_">
	<line class="st1" x1="0.1" y1="0.3" x2="0.1" y2="3.7"/>
</g>
<g id="LWPOLYLINE_00000111178093790268386150000010430411523445570992_">
	<line class="st1" x1="0.1" y1="3.7" x2="1.1" y2="3.7"/>
</g>
<g id="LWPOLYLINE_00000115484436286703918510000000656566604375176357_">
	<line class="st1" x1="1.1" y1="3.7" x2="1.1" y2="13.6"/>
</g>
<g id="LWPOLYLINE_00000076586834144564837620000007989361779642620588_">
	<line class="st1" x1="1.1" y1="13.6" x2="0.1" y2="13.6"/>
</g>
<g id="LWPOLYLINE_00000178903662406115694980000009643938329698725271_">
	<line class="st1" x1="0.1" y1="13.6" x2="0.1" y2="16.9"/>
</g>
<g id="LWPOLYLINE_00000074421221996933443670000002063813069172800444_">
	<line class="st1" x1="0.1" y1="16.9" x2="4" y2="16.9"/>
</g>
<g id="LWPOLYLINE_00000078002440242813821690000013633236290402150551_">
	<line class="st1" x1="4" y1="16.9" x2="4" y2="13.6"/>
</g>
<g id="LWPOLYLINE_00000178899277411912608290000016262043491414780325_">
	<line class="st1" x1="4" y1="13.6" x2="3" y2="13.6"/>
</g>
<g id="LWPOLYLINE_00000137099138129287914270000005339828741660765619_">
	<line class="st1" x1="4" y1="0.3" x2="0.1" y2="0.3"/>
</g>
<g id="LWPOLYLINE_00000131348112767556547480000002562267752649396654_">
	<line class="st1" x1="0.1" y1="0.3" x2="0.1" y2="3.7"/>
</g>
<g id="LWPOLYLINE_00000137103637100015249180000000087789854882806696_">
	<line class="st1" x1="0.1" y1="3.7" x2="1.1" y2="3.7"/>
</g>
<g id="LWPOLYLINE_00000172422423139975040800000002924619723629103789_">
	<line class="st1" x1="1.1" y1="3.7" x2="3" y2="3.7"/>
</g>
<g id="LWPOLYLINE_00000124852700987838190770000010046801707167339181_">
	<line class="st1" x1="3" y1="3.7" x2="4" y2="3.7"/>
</g>
<g id="LWPOLYLINE_00000125575289511845112720000003137062477702257566_">
	<line class="st1" x1="4" y1="3.7" x2="4" y2="3.1"/>
</g>
<g id="LWPOLYLINE_00000070832055907649691600000005712471099722345355_">
	<line class="st1" x1="4" y1="3.1" x2="4" y2="1.1"/>
</g>
<g id="LWPOLYLINE_00000059290784215347471160000011238886518666633128_">
	<line class="st1" x1="4" y1="1.1" x2="4" y2="0.3"/>
</g>
<g id="LWPOLYLINE_00000119106958809620058870000016869137778972716694_">
	<line class="st1" x1="1.1" y1="13.6" x2="3" y2="13.6"/>
</g>
<g id="LWPOLYLINE_00000085972149345109846100000016957327167325803924_">
	<line class="st1" x1="3" y1="13.6" x2="3" y2="3.7"/>
</g>
<g id="LWPOLYLINE_00000107561896261901586920000002822249027992040871_">
	<line class="st1" x1="3" y1="3.7" x2="1.1" y2="3.7"/>
</g>
<g id="LWPOLYLINE_00000111886194262178372840000017263969757417676932_">
	<line class="st1" x1="1.1" y1="3.7" x2="1.1" y2="13.6"/>
</g>
<g id="LWPOLYLINE_00000004547052572303814190000017528406315620519605_">
	<line class="st1" x1="4" y1="13.6" x2="3" y2="13.6"/>
</g>
<g id="LWPOLYLINE_00000176739571884785611000000017572101338132187061_">
	<line class="st1" x1="3" y1="13.6" x2="1.1" y2="13.6"/>
</g>
<g id="LWPOLYLINE_00000008844116572440465780000013334988736823731595_">
	<line class="st1" x1="1.1" y1="13.6" x2="0.1" y2="13.6"/>
</g>
<g id="LWPOLYLINE_00000070814603646907404970000010427728630144082852_">
	<line class="st1" x1="0.1" y1="13.6" x2="0.1" y2="16.9"/>
</g>
<g id="LWPOLYLINE_00000041978398694418026310000010867041351342988699_">
	<line class="st1" x1="0.1" y1="16.9" x2="4" y2="16.9"/>
</g>
<g id="LWPOLYLINE_00000047752477333717906290000012298743156915104128_">
	<line class="st1" x1="4" y1="16.9" x2="4" y2="13.6"/>
</g>
<g id="LWPOLYLINE_00000000223472682802752100000014179151055008466347_">
	<line class="st1" x1="13.8" y1="3.1" x2="13.8" y2="1.1"/>
</g>
<g id="LWPOLYLINE_00000178886567694457954780000010539748187547704456_">
	<line class="st1" x1="13.8" y1="1.1" x2="4" y2="1.1"/>
</g>
<g id="LWPOLYLINE_00000113338235813363108260000010958090093732823463_">
	<line class="st1" x1="4" y1="1.1" x2="4" y2="3.1"/>
</g>
<g id="LWPOLYLINE_00000118360811906371888980000017505475590199718542_">
	<line class="st1" x1="4" y1="3.1" x2="13.8" y2="3.1"/>
</g>
<g id="LWPOLYLINE_00000111184258935800707890000008459784722572543104_">
	<line class="st1" x1="13.8" y1="0.1" x2="13.8" y2="1.1"/>
</g>
<g id="LWPOLYLINE_00000106839135474070994190000001692761811638784926_">
	<line class="st1" x1="13.8" y1="1.1" x2="13.8" y2="3.1"/>
</g>
<g id="LWPOLYLINE_00000157266352220761733330000017299679197899560840_">
	<line class="st1" x1="13.8" y1="3.1" x2="13.8" y2="4"/>
</g>
<g id="LWPOLYLINE_00000067234494081560247400000004618852489302519477_">
	<line class="st1" x1="13.8" y1="4" x2="17.1" y2="4"/>
</g>
<g id="LWPOLYLINE_00000097487012043640819070000005715750668432371099_">
	<line class="st1" x1="17.1" y1="4" x2="17.1" y2="0.1"/>
</g>
<g id="LWPOLYLINE_00000027562869675309837270000017815131884895303297_">
	<line class="st1" x1="17.1" y1="0.1" x2="13.8" y2="0.1"/>
</g>
</svg>
