<?xml version="1.0" encoding="utf-8"?>
<!-- Generator: Adobe Illustrator 26.1.0, SVG Export Plug-In . SVG Version: 6.00 Build 0)  -->
<svg version="1.1" id="Layer_1" xmlns="http://www.w3.org/2000/svg" xmlns:xlink="http://www.w3.org/1999/xlink" x="0px" y="0px"
	 viewBox="0 0 17.291338 20.417654" style="enable-background:new 0 0 17.291338 20.417654;" xml:space="preserve">
<style type="text/css">
	.st0{fill-rule:evenodd;clip-rule:evenodd;fill:#FFFFFF;stroke:#000000;stroke-width:0.2834646;stroke-miterlimit:22.9256001;}
	.st1{fill-rule:evenodd;clip-rule:evenodd;fill:#D72819;}
	.st2{fill-rule:evenodd;clip-rule:evenodd;}
</style>
<g>
	<path d="M5.993814,19.8453884L6.3707671,19.79949c0.0117188,0.0957031,0.0439453,0.1689453,0.0966797,0.2197266
		s0.1162109,0.0761719,0.1904297,0.0761719c0.0810547,0,0.1484375-0.0302734,0.203125-0.0908203
		c0.0546875-0.0615234,0.0820312-0.1435547,0.0820312-0.2470703c0-0.0976562-0.0263672-0.1748047-0.078125-0.2324219
		c-0.0527344-0.0566406-0.1171875-0.0859375-0.1923828-0.0859375c-0.0498047,0-0.109375,0.0097656-0.1787109,0.0292969
		l0.0429688-0.3164062c0.1044922,0.0019531,0.1855469-0.0205078,0.2402344-0.0693359
		c0.0556641-0.0478516,0.0830078-0.1123047,0.0830078-0.1923828c0-0.0683594-0.0195312-0.1230469-0.0605469-0.1640625
		c-0.0410156-0.0400391-0.0947266-0.0605469-0.1621094-0.0605469c-0.0664062,0-0.1230469,0.0234375-0.1699219,0.0693359
		s-0.0761719,0.1132812-0.0859375,0.2021484l-0.3583984-0.0605469c0.0244141-0.1230469,0.0625-0.2216797,0.1123047-0.2949219
		c0.0507812-0.0732422,0.1210938-0.1308594,0.2109375-0.1728516s0.1904297-0.0625,0.3027344-0.0625
		c0.1904297,0,0.34375,0.0605469,0.4589844,0.1826172c0.0947266,0.0996094,0.1425781,0.2119141,0.1425781,0.3378906
		c0,0.1777344-0.0976562,0.3203125-0.2919922,0.4257812c0.1162109,0.0253906,0.2089844,0.0810547,0.2792969,0.1679688
		c0.0693359,0.0859375,0.1044922,0.1914062,0.1044922,0.3134766c0,0.1787109-0.0654297,0.3300781-0.1953125,0.4560547
		c-0.1298828,0.125-0.2919922,0.1875-0.4863281,0.1875c-0.1835938,0-0.3359375-0.0527344-0.4560547-0.1582031
		C6.0836577,20.1539822,6.0133452,20.0153103,5.993814,19.8453884z"/>
	<path d="M7.6666656,20.3834743v-0.3886719h0.389648v0.3886719H7.6666656z"/>
	<path d="M9.3673487,20.3834743H8.9781885V18.917654c-0.1416016,0.1328125-0.3095703,0.2314453-0.5019531,0.2949219v-0.3525391
		c0.1015625-0.0332031,0.2109375-0.0966797,0.3300781-0.1894531s0.2011719-0.2011719,0.2451172-0.3242188h0.315918V20.3834743z"/>
	<path d="M10.7110987,20.3834743v-0.4082031H9.8810205v-0.3408203l0.8798828-1.2880859h0.3271484v1.2871094h0.2519531v0.3417969
		h-0.2519531v0.4082031H10.7110987z M10.7110987,19.6334743V18.940115l-0.4658203,0.6933594H10.7110987z"/>
</g>
<path class="st0" d="M8.6456814,0.1417853c4.6966038,0,8.5039253,3.8073816,8.5039253,8.5039787
	c0,4.6966028-3.8073215,8.5039778-8.5039253,8.5039778c-4.6965971,0-8.5039492-3.807375-8.5039492-8.5039778
	C0.1417323,3.949167,3.949084,0.1417853,8.6456814,0.1417853L8.6456814,0.1417853z"/>
<path class="st1" d="M8.6456814,0.3993664c4.5543365,0,8.2463436,3.6920671,8.2463436,8.246398
	c0,4.5543365-3.6920071,8.2463446-8.2463436,8.2463446c-4.5543308,0-8.2463684-3.692008-8.2463684-8.2463446
	C0.3993133,4.0914335,4.0913506,0.3993664,8.6456814,0.3993664L8.6456814,0.3993664z M8.6456814,1.8455824
	c3.7555838,0,6.800128,3.0445442,6.800128,6.8001819c0,3.7555838-3.0445442,6.800128-6.800128,6.800128
	c-3.7556076,0-6.8001518-3.0445442-6.8001518-6.800128C1.8455293,4.8901267,4.8900738,1.8455824,8.6456814,1.8455824
	L8.6456814,1.8455824z"/>
<path class="st2" d="M8.7457018,9.0508261c0.2715254,0,0.4916668,0.2201347,0.4916668,0.4916601
	c0,0.0884762-0.0233831,0.171505-0.0642796,0.2431688l-0.5363722,1.0175438H8.316328l0.4057035-0.7696352
	C8.4615221,10.021204,8.2541018,9.8061028,8.2541018,9.5424862C8.2541018,9.2709608,8.4742365,9.0508261,8.7457018,9.0508261
	L8.7457018,9.0508261z M9.8068962,11.0411482l0.2562313,2.5700502l-0.5978308-0.0001793l-0.1183624-1.7043791l-0.7012529,1.3367033
	l-0.701313-1.3367033l-0.1182966,1.7043791l-0.5978961,0.0001793l0.2562909-2.5700502l0.5662527,0.0000601l0.5949621,1.1850052
	l0.5949087-1.1850052L9.8068962,11.0411482L9.8068962,11.0411482z M13.2301922,8.6457644l1.7393055,1.7350273V6.910737
	L13.2301922,8.6457644L13.2301922,8.6457644z M4.0611405,8.6457644L2.3218412,6.910737v3.4700546L4.0611405,8.6457644
	L4.0611405,8.6457644z M9.5115871,6.181128l0.2275209-0.8484993h2.8722172V6.181128
	c-0.6451826,0.8494358-1.2791681,2.5441489-1.5235615,3.878098l-1.0101585-0.0219126
	c0.3165255-1.3321304,0.9379721-2.7276645,1.5810366-3.8561854H9.5115871L9.5115871,6.181128z M7.6947017,10.0595798H4.8088574
	V9.2404385C5.201673,8.8749828,5.631959,8.4617796,5.9939523,8.0801601C6.2830577,7.775353,6.5257525,7.4885936,6.6929793,7.2770085
	C6.89185,7.0254097,7.1222992,6.81494,7.0509286,6.4806013C6.9871788,6.1824722,6.7417893,5.9322166,6.4169421,5.938313
	C6.0622449,5.9449911,5.7672539,6.2189765,5.4390702,6.58355L4.8852377,5.9660273
	C5.193615,5.5144415,5.8765321,5.2575684,6.3906922,5.2575684c0.797523,0,1.4710016,0.5501962,1.4710016,1.3725057
	c0,0.2833633-0.0339241,0.5678363-0.2218924,0.8281116c-0.173677,0.2405229-0.5446348,0.6418347-0.9997306,1.0896106
	L5.9867764,9.1905727h1.9338078L7.6947017,10.0595798L7.6947017,10.0595798z"/>
</svg>
