<?xml version="1.0" encoding="utf-8"?>
<!-- Generator: Adobe Illustrator 26.1.0, SVG Export Plug-In . SVG Version: 6.00 Build 0)  -->
<svg version="1.1" id="Layer_1" xmlns="http://www.w3.org/2000/svg" xmlns:xlink="http://www.w3.org/1999/xlink" x="0px" y="0px"
	 viewBox="0 0 29 42.8" style="enable-background:new 0 0 29 42.8;" xml:space="preserve">
<style type="text/css">
	.st0{fill-rule:evenodd;clip-rule:evenodd;fill:#FFFFFF;}
	.st1{fill:none;stroke:#EB4B00;stroke-width:0.2835;stroke-linecap:round;stroke-linejoin:round;stroke-miterlimit:10;}
	.st2{fill:none;stroke:#EB4B00;stroke-width:0.5669;stroke-linecap:round;stroke-linejoin:round;stroke-miterlimit:10;}
	.st3{fill:none;stroke:#EB4B00;stroke-width:0.7087;stroke-linecap:round;stroke-linejoin:round;stroke-miterlimit:10;}
</style>
<g id="HATCH_00000158731202581095448590000005781097452178273924_">
	<polygon class="st0" points="28.6,7 28.6,9.8 28.6,12.5 27,13.2 25.5,13.9 25.3,14 25.3,14 23.3,14.9 23.2,15 23.2,15 22.8,15.1 
		20.6,16.2 20.5,16.2 17.8,17.4 17.7,17.5 14.8,18.8 14.5,19 11.5,20.3 7.8,22 4.1,23.7 3.8,23.8 0.4,25.4 0.4,22.2 0.4,18.9 
		0.4,15.7 0.4,12.5 3.4,11.3 3.6,11.2 7.4,9.7 11,8.4 11.1,8.3 14.5,7 17.4,5.9 20.2,4.8 22.3,4 22.9,3.7 23,3.7 25,2.9 25.1,2.9 
		25.2,2.8 26.9,2.2 28.5,1.5 28.5,4.3 28.6,7 	"/>
</g>
<g id="LWPOLYLINE_00000005265224445337931940000018323629609761740991_">
	<line class="st1" x1="28.6" y1="7" x2="28.6" y2="9.8"/>
</g>
<g id="LWPOLYLINE_00000056420596331659879790000013966792260946016642_">
	<line class="st1" x1="28.6" y1="9.8" x2="28.6" y2="12.5"/>
</g>
<g id="LWPOLYLINE_00000139990021416874398310000010908455377267401633_">
	<line class="st1" x1="27" y1="13.2" x2="28.6" y2="12.5"/>
</g>
<g id="LWPOLYLINE_00000088106282943994650040000016308189810714503346_">
	<line class="st1" x1="25.5" y1="13.9" x2="27" y2="13.2"/>
</g>
<g id="LWPOLYLINE_00000025432817237113750090000009807611151217425041_">
	<line class="st1" x1="25.4" y1="14" x2="25.5" y2="13.9"/>
</g>
<g id="LWPOLYLINE_00000154420364743452475150000004618546509592540324_">
	<line class="st1" x1="25.3" y1="14" x2="25.4" y2="14"/>
</g>
<g id="LWPOLYLINE_00000063619505472918046710000010355868731905431186_">
	<line class="st1" x1="23.3" y1="14.9" x2="25.3" y2="14"/>
</g>
<g id="LWPOLYLINE_00000093138291047539168370000004336115280492852646_">
	<line class="st1" x1="23.2" y1="15" x2="23.3" y2="14.9"/>
</g>
<g id="LWPOLYLINE_00000072280620541114250900000011796502940687024550_">
	<line class="st1" x1="23.2" y1="15" x2="23.2" y2="15"/>
</g>
<g id="LWPOLYLINE_00000072971989729020528800000010171051487546343052_">
	<line class="st1" x1="22.8" y1="15.1" x2="23.2" y2="15"/>
</g>
<g id="LWPOLYLINE_00000183242810647031393790000002058058295820899211_">
	<line class="st1" x1="20.6" y1="16.2" x2="22.8" y2="15.1"/>
</g>
<g id="LWPOLYLINE_00000147207606662259521170000009384235124178377860_">
	<line class="st1" x1="20.5" y1="16.2" x2="20.6" y2="16.2"/>
</g>
<g id="LWPOLYLINE_00000155131622207886389710000002975205798600935060_">
	<line class="st1" x1="17.8" y1="17.4" x2="20.5" y2="16.2"/>
</g>
<g id="LWPOLYLINE_00000080891811526526408860000012926940864282824086_">
	<line class="st1" x1="17.7" y1="17.5" x2="17.8" y2="17.4"/>
</g>
<g id="LWPOLYLINE_00000057144374207998263650000015903210210185336211_">
	<line class="st1" x1="14.8" y1="18.8" x2="17.7" y2="17.5"/>
</g>
<g id="LWPOLYLINE_00000128456524500283756290000013823871876439424142_">
	<line class="st1" x1="14.5" y1="19" x2="14.8" y2="18.8"/>
</g>
<g id="LWPOLYLINE_00000175293196092431139330000011049059445098643098_">
	<line class="st1" x1="11.5" y1="20.3" x2="14.5" y2="19"/>
</g>
<g id="LWPOLYLINE_00000067216823479306387750000016022265943417580161_">
	<line class="st1" x1="7.8" y1="22" x2="11.5" y2="20.3"/>
</g>
<g id="LWPOLYLINE_00000098180472496300708630000014789929536435271834_">
	<line class="st1" x1="4.1" y1="23.7" x2="7.8" y2="22"/>
</g>
<g id="LWPOLYLINE_00000154420911416960774490000012109273505674685604_">
	<line class="st1" x1="3.8" y1="23.8" x2="4.1" y2="23.7"/>
</g>
<g id="LWPOLYLINE_00000083060865053176831430000003685380220574068658_">
	<line class="st1" x1="0.4" y1="25.4" x2="3.8" y2="23.8"/>
</g>
<g id="LWPOLYLINE_00000102512652483746673600000017138137593284447637_">
	<line class="st1" x1="0.4" y1="22.2" x2="0.4" y2="25.4"/>
</g>
<g id="LWPOLYLINE_00000113339886615048078890000009170980747218752678_">
	<line class="st1" x1="0.4" y1="18.9" x2="0.4" y2="22.2"/>
</g>
<g id="LWPOLYLINE_00000109026609922679830610000006481587231497238423_">
	<line class="st1" x1="0.4" y1="15.7" x2="0.4" y2="18.9"/>
</g>
<g id="LWPOLYLINE_00000180336594088107104920000017881083471442148795_">
	<line class="st1" x1="0.4" y1="12.5" x2="0.4" y2="15.7"/>
</g>
<g id="LWPOLYLINE_00000152945650654141587260000014116113260324327044_">
	<line class="st1" x1="3.4" y1="11.3" x2="0.4" y2="12.5"/>
</g>
<g id="LWPOLYLINE_00000155835882230554617620000000339623878616758935_">
	<line class="st1" x1="3.6" y1="11.2" x2="3.4" y2="11.3"/>
</g>
<g id="LWPOLYLINE_00000065753999204616876260000009351054759530075008_">
	<line class="st1" x1="7.4" y1="9.7" x2="3.6" y2="11.2"/>
</g>
<g id="LWPOLYLINE_00000110455925120726851330000018340528147556055210_">
	<line class="st1" x1="11" y1="8.4" x2="7.4" y2="9.7"/>
</g>
<g id="LWPOLYLINE_00000031200170221136243090000003297231355146222524_">
	<line class="st1" x1="11.1" y1="8.3" x2="11" y2="8.4"/>
</g>
<g id="LWPOLYLINE_00000062185448166513645930000002339141886167786421_">
	<line class="st1" x1="14.5" y1="7" x2="11.1" y2="8.3"/>
</g>
<g id="LWPOLYLINE_00000129168355059784993490000007457588596548088975_">
	<line class="st1" x1="17.4" y1="5.9" x2="14.5" y2="7"/>
</g>
<g id="LWPOLYLINE_00000123407859954083402280000005778647393940739769_">
	<line class="st1" x1="20.2" y1="4.8" x2="17.4" y2="5.9"/>
</g>
<g id="LWPOLYLINE_00000059271073233066362510000010419134049221580220_">
	<line class="st1" x1="22.3" y1="4" x2="20.2" y2="4.8"/>
</g>
<g id="LWPOLYLINE_00000061448664696556505770000011166840277398797965_">
	<line class="st1" x1="22.9" y1="3.7" x2="22.3" y2="4"/>
</g>
<g id="LWPOLYLINE_00000160190479969575532850000007609336907908820620_">
	<line class="st1" x1="23" y1="3.7" x2="22.9" y2="3.7"/>
</g>
<g id="LWPOLYLINE_00000117654467263267876420000011452903120106081670_">
	<line class="st1" x1="25" y1="2.9" x2="23" y2="3.7"/>
</g>
<g id="LWPOLYLINE_00000020396748990063031030000017623179027563245958_">
	<line class="st1" x1="25.1" y1="2.9" x2="25" y2="2.9"/>
</g>
<g id="LWPOLYLINE_00000031186359447017933480000008084392874432766857_">
	<line class="st1" x1="25.2" y1="2.8" x2="25.1" y2="2.9"/>
</g>
<g id="LWPOLYLINE_00000111162529772342957780000005983302117372274618_">
	<line class="st1" x1="26.9" y1="2.2" x2="25.2" y2="2.8"/>
</g>
<g id="LWPOLYLINE_00000176741793947650695850000006105890477668855481_">
	<line class="st1" x1="28.5" y1="1.5" x2="26.9" y2="2.2"/>
</g>
<g id="LWPOLYLINE_00000151522322554225215610000004530844459289987504_">
	<line class="st1" x1="28.5" y1="1.5" x2="28.5" y2="4.3"/>
</g>
<g id="LWPOLYLINE_00000147923949896334787740000006199873685252335498_">
	<line class="st1" x1="28.5" y1="4.3" x2="28.6" y2="7"/>
</g>
<g id="LWPOLYLINE_00000176731871350483396500000011307711481963802523_">
	<line class="st2" x1="0.4" y1="25.4" x2="3.8" y2="23.8"/>
</g>
<g id="LWPOLYLINE_00000167370189455966805240000002584469199982004151_">
	<line class="st2" x1="3.8" y1="23.8" x2="4.1" y2="23.7"/>
</g>
<g id="LWPOLYLINE_00000052806242763826071790000009537185535210413714_">
	<line class="st2" x1="4.1" y1="23.7" x2="7.8" y2="22"/>
</g>
<g id="LWPOLYLINE_00000036950004857610332560000001001894265563326597_">
	<line class="st2" x1="7.8" y1="22" x2="11.5" y2="20.3"/>
</g>
<g id="LWPOLYLINE_00000040544446004407685600000011807874292804591530_">
	<line class="st2" x1="11.5" y1="20.3" x2="14.5" y2="19"/>
</g>
<g id="LWPOLYLINE_00000000223146476694874960000012718483456678102707_">
	<line class="st2" x1="14.5" y1="19" x2="14.8" y2="18.8"/>
</g>
<g id="LWPOLYLINE_00000054972182515445871000000012462054589606157445_">
	<line class="st2" x1="14.8" y1="18.8" x2="17.7" y2="17.5"/>
</g>
<g id="LWPOLYLINE_00000126314219150243786440000006378521904665451929_">
	<line class="st1" x1="17.7" y1="17.5" x2="17.8" y2="17.4"/>
</g>
<g id="LWPOLYLINE_00000055707410736146591700000014693671945783143579_">
	<line class="st2" x1="17.8" y1="17.4" x2="20.5" y2="16.2"/>
</g>
<g id="LWPOLYLINE_00000045621131629646878910000004862819591658504602_">
	<line class="st1" x1="20.5" y1="16.2" x2="20.6" y2="16.2"/>
</g>
<g id="LWPOLYLINE_00000044868748537167574180000000283886923101275279_">
	<line class="st2" x1="20.6" y1="16.2" x2="22.8" y2="15.1"/>
</g>
<g id="LWPOLYLINE_00000027587488756560839280000008309294785118049471_">
	<line class="st2" x1="22.8" y1="15.1" x2="23.2" y2="15"/>
</g>
<g id="LWPOLYLINE_00000057864376719844368810000003568892623796522644_">
	<line class="st1" x1="23.2" y1="15" x2="23.2" y2="15"/>
</g>
<g id="LWPOLYLINE_00000018950253201192635320000017779197354960593547_">
	<line class="st2" x1="23.2" y1="15" x2="23.3" y2="14.9"/>
</g>
<g id="LWPOLYLINE_00000118387195178212112770000016685108741681150109_">
	<line class="st2" x1="23.3" y1="14.9" x2="25.3" y2="14"/>
</g>
<g id="LWPOLYLINE_00000078009722913722522640000004078601556562265770_">
	<line class="st1" x1="25.3" y1="14" x2="25.4" y2="14"/>
</g>
<g id="LWPOLYLINE_00000069385968619492817190000004383050098090874765_">
	<line class="st2" x1="25.4" y1="14" x2="25.5" y2="13.9"/>
</g>
<g id="LWPOLYLINE_00000110428654902882212120000016874760449870817975_">
	<line class="st2" x1="25.5" y1="13.9" x2="27" y2="13.2"/>
</g>
<g id="LWPOLYLINE_00000098194273941352109520000014869916218298856832_">
	<line class="st2" x1="27" y1="13.2" x2="28.6" y2="12.5"/>
</g>
<g id="LWPOLYLINE_00000101082091500342049660000004919909645824723100_">
	<line class="st1" x1="28.6" y1="12.5" x2="28.6" y2="9.8"/>
</g>
<g id="LWPOLYLINE_00000116210008424096894350000016573124507114494091_">
	<line class="st1" x1="28.6" y1="9.8" x2="28.6" y2="7"/>
</g>
<g id="LWPOLYLINE_00000156581243463474597740000009309236808352950442_">
	<line class="st1" x1="28.6" y1="7" x2="28.5" y2="4.3"/>
</g>
<g id="LWPOLYLINE_00000178168228478590804990000010453531317640437152_">
	<line class="st1" x1="28.5" y1="4.3" x2="28.5" y2="1.5"/>
</g>
<g id="LWPOLYLINE_00000093169564363170397410000002091832810361191066_">
	<line class="st2" x1="28.5" y1="1.5" x2="26.9" y2="2.2"/>
</g>
<g id="LWPOLYLINE_00000081641666926016453810000016534012942692979354_">
	<line class="st2" x1="26.9" y1="2.2" x2="25.2" y2="2.8"/>
</g>
<g id="LWPOLYLINE_00000077288459634553266610000002208359920206779049_">
	<line class="st1" x1="25.2" y1="2.8" x2="25.1" y2="2.9"/>
</g>
<g id="LWPOLYLINE_00000160903643612302569730000009020333719760584630_">
	<line class="st2" x1="25.1" y1="2.9" x2="25" y2="2.9"/>
</g>
<g id="LWPOLYLINE_00000172430322123438147750000011193431607530222747_">
	<line class="st2" x1="25" y1="2.9" x2="23" y2="3.7"/>
</g>
<g id="LWPOLYLINE_00000155866600830821844610000007784370540243390136_">
	<line class="st1" x1="23" y1="3.7" x2="22.9" y2="3.7"/>
</g>
<g id="LWPOLYLINE_00000173134385629294609670000013738615315389858232_">
	<line class="st2" x1="22.9" y1="3.7" x2="22.3" y2="4"/>
</g>
<g id="LWPOLYLINE_00000075855548657816940860000014787912491050982310_">
	<line class="st2" x1="22.3" y1="4" x2="20.2" y2="4.8"/>
</g>
<g id="LWPOLYLINE_00000067213710543646312590000004859468240761214129_">
	<line class="st2" x1="20.2" y1="4.8" x2="17.4" y2="5.9"/>
</g>
<g id="LWPOLYLINE_00000010295849314047987860000014544472092465390246_">
	<line class="st2" x1="17.4" y1="5.9" x2="14.5" y2="7"/>
</g>
<g id="LWPOLYLINE_00000155865621581373022350000014889288309407598735_">
	<line class="st2" x1="14.5" y1="7" x2="11.1" y2="8.3"/>
</g>
<g id="LWPOLYLINE_00000047024924078385585280000006063464271322688419_">
	<line class="st1" x1="11.1" y1="8.3" x2="11" y2="8.4"/>
</g>
<g id="LWPOLYLINE_00000129196725593589249010000011375209105714014894_">
	<line class="st2" x1="11" y1="8.4" x2="7.4" y2="9.7"/>
</g>
<g id="LWPOLYLINE_00000062913646347655919880000004306833213008852922_">
	<line class="st2" x1="7.4" y1="9.7" x2="3.6" y2="11.2"/>
</g>
<g id="LWPOLYLINE_00000135679958331827610290000015677635608499364787_">
	<line class="st2" x1="3.6" y1="11.2" x2="3.4" y2="11.3"/>
</g>
<g id="LWPOLYLINE_00000156575121526529666110000006889271560681376669_">
	<line class="st2" x1="3.4" y1="11.3" x2="0.4" y2="12.5"/>
</g>
<g id="LWPOLYLINE_00000170964195545576779400000014446194217273701003_">
	<line class="st1" x1="0.4" y1="12.5" x2="0.4" y2="15.7"/>
</g>
<g id="LWPOLYLINE_00000046303573931229383160000007057843825421468070_">
	<line class="st1" x1="0.4" y1="15.7" x2="0.4" y2="18.9"/>
</g>
<g id="LWPOLYLINE_00000145769193828341509900000007663356365789461902_">
	<line class="st1" x1="0.4" y1="18.9" x2="0.4" y2="22.2"/>
</g>
<g id="LWPOLYLINE_00000176764418550629632460000000384012299926048693_">
	<line class="st1" x1="0.4" y1="22.2" x2="0.4" y2="25.4"/>
</g>
<g id="LWPOLYLINE_00000066517899467928916530000014786350081436710047_">
	<line class="st3" x1="0.4" y1="12.5" x2="0.4" y2="15.7"/>
</g>
<g id="LWPOLYLINE_00000146480394542265089680000003868459687147460524_">
	<line class="st3" x1="0.4" y1="15.7" x2="0.4" y2="18.9"/>
</g>
<g id="LWPOLYLINE_00000027597233979258857750000005301677849431949726_">
	<line class="st3" x1="0.4" y1="18.9" x2="0.4" y2="22.2"/>
</g>
<g id="LWPOLYLINE_00000060012933745941373390000016761728472807198592_">
	<line class="st3" x1="0.4" y1="22.2" x2="0.4" y2="25.4"/>
</g>
<g id="LWPOLYLINE_00000121984347494736510330000014795970830055709101_">
	<line class="st3" x1="0.4" y1="25.4" x2="0.4" y2="42.5"/>
</g>
<g id="LWPOLYLINE_00000114052277004184591000000018348559511748529805_">
	<line class="st3" x1="28.5" y1="1.5" x2="28.5" y2="4.3"/>
</g>
<g id="LWPOLYLINE_00000000912079204350359880000003093876864972516787_">
	<line class="st3" x1="28.5" y1="4.3" x2="28.6" y2="7"/>
</g>
<g id="LWPOLYLINE_00000131348016422927753780000017199683453787310995_">
	<line class="st3" x1="28.6" y1="7" x2="28.6" y2="9.8"/>
</g>
<g id="LWPOLYLINE_00000085960250723306049430000008495597409166440584_">
	<line class="st3" x1="28.6" y1="9.8" x2="28.6" y2="12.5"/>
</g>
<g id="LWPOLYLINE_00000041982991772268055160000017451521351260484534_">
	<line class="st3" x1="28.6" y1="12.5" x2="28.6" y2="31.7"/>
</g>
<g id="LWPOLYLINE_00000075883286151534967530000004135713445297040024_">
	<line class="st1" x1="0.4" y1="18.9" x2="28.6" y2="7"/>
</g>
<g id="LWPOLYLINE_00000047041524575535874300000004925799573417210497_">
	<line class="st1" x1="0.4" y1="15.7" x2="28.5" y2="4.3"/>
</g>
<g id="LWPOLYLINE_00000148663016464474592160000012870189779248597635_">
	<line class="st1" x1="0.4" y1="22.2" x2="28.6" y2="9.8"/>
</g>
<g id="LWPOLYLINE_00000087395958889318483830000002278431576159644071_">
	<line class="st1" x1="14.5" y1="7" x2="14.8" y2="18.8"/>
</g>
<g id="LWPOLYLINE_00000157297636433635348010000015778864433442420121_">
	<line class="st1" x1="7.4" y1="9.7" x2="7.8" y2="22"/>
</g>
<g id="LWPOLYLINE_00000027602867755813352180000008999893698225360518_">
	<line class="st1" x1="11.1" y1="8.3" x2="11.5" y2="20.3"/>
</g>
<g id="LWPOLYLINE_00000087384550389564675360000007171853058537860536_">
	<line class="st1" x1="3.6" y1="11.2" x2="3.8" y2="23.8"/>
</g>
<g id="LWPOLYLINE_00000162317320693862432680000009599992942775673750_">
	<line class="st1" x1="17.4" y1="5.9" x2="17.7" y2="17.5"/>
</g>
<g id="LWPOLYLINE_00000084510556374524416140000007186206119591315606_">
	<line class="st1" x1="20.2" y1="4.8" x2="20.5" y2="16.2"/>
</g>
<g id="LWPOLYLINE_00000141443720978894110040000014929393013715950977_">
	<line class="st1" x1="22.9" y1="3.7" x2="23.2" y2="15"/>
</g>
<g id="LWPOLYLINE_00000093152993839843088400000005931530970330578603_">
	<line class="st1" x1="25" y1="2.9" x2="25.3" y2="14"/>
</g>
<g id="LWPOLYLINE_00000082354788236782852540000008334535396052041091_">
	<line class="st1" x1="26.9" y1="2.2" x2="27" y2="13.2"/>
</g>
<g id="LWPOLYLINE_00000168806467075452112250000002358897677235126963_">
	<line class="st3" x1="0.4" y1="12.5" x2="0.4" y2="10.7"/>
</g>
<g id="LWPOLYLINE_00000046314546331662019950000005794054534944888229_">
	<line class="st3" x1="28.5" y1="1.5" x2="28.5" y2="0.4"/>
</g>
</svg>
