<?xml version="1.0" encoding="utf-8"?>
<!-- Generator: Adobe Illustrator 26.1.0, SVG Export Plug-In . SVG Version: 6.00 Build 0)  -->
<svg version="1.1" id="Layer_1" xmlns="http://www.w3.org/2000/svg" xmlns:xlink="http://www.w3.org/1999/xlink" x="0px" y="0px"
	 viewBox="0 0 85.0393677 85.0393677" style="enable-background:new 0 0 85.0393677 85.0393677;" xml:space="preserve">
<style type="text/css">
	.st0{fill-rule:evenodd;clip-rule:evenodd;fill:#0000FF;}
	.st1{fill-rule:evenodd;clip-rule:evenodd;fill:#FFFFFF;}
	.st2{fill:none;stroke:#0000FF;stroke-width:0.2834646;stroke-linecap:round;stroke-linejoin:round;stroke-miterlimit:10;}
</style>
<g>
	<g id="HATCH_00000092416421410536529940000007662887635850530480_">
		<polygon class="st0" points="35.2594948,82.879921 36.9561844,84.6173782 36.9561844,85.036499 34.9503784,82.9824905 
			34.9503784,80.3420868 35.2594948,80.658638 35.2594948,82.879921 		"/>
	</g>
	<g id="HATCH_00000180363302544285436580000017708125712978216368_">
		<polygon class="st0" points="47.7201996,82.879921 49.4168892,84.6173782 49.4168892,85.036499 47.4110832,82.9824905 
			47.4110832,80.9354248 47.7201996,80.9354248 47.7201996,82.879921 		"/>
	</g>
	<g id="HATCH_00000000916049287197431350000004399932225632165791_">
		<polygon class="st0" points="49.7260056,84.9339294 49.4168892,85.036499 49.4168892,84.6173782 49.4168892,80.9354248 
			49.7260056,80.9354248 49.7260056,84.9339294 		"/>
	</g>
	<g id="HATCH_00000003804316416713313530000012803567963034417561_">
		<polygon class="st0" points="37.2653008,84.9339294 36.9561844,85.036499 36.9561844,84.6173782 36.9561844,80.9354248 
			37.2653008,80.9354248 37.2653008,84.9339294 		"/>
	</g>
	<g id="HATCH_00000109711774723901042480000001139119341130644151_">
		<polygon class="st0" points="47.828186,79.5695343 48.5895004,80.0531693 48.9987793,80.0531693 48.243515,79.5695343 
			48.1172142,79.5695343 47.828186,79.5695343 		"/>
	</g>
	<g id="HATCH_00000075156787061612265390000002763761576167470013_">
		<polygon class="st0" points="35.6335068,79.5695343 36.3948212,80.0531693 36.8041039,80.0531693 36.0488358,79.5695343 
			35.9225349,79.5695343 35.6335068,79.5695343 		"/>
	</g>
	<g id="HATCH_00000160191608295016287720000014536772626392440462_">
		<polygon class="st0" points="47.6493149,80.0531693 47.3277855,80.0531693 47.3277855,79.5695343 47.6493149,79.5695343 
			47.6493149,80.0531693 		"/>
	</g>
	<g id="HATCH_00000085251339547066271860000003490637294560066208_">
		<polygon class="st0" points="34.9513092,80.0531693 35.2594948,80.0531693 35.2594948,79.5695343 34.9547119,79.5695343 
			34.9513092,80.0531693 		"/>
	</g>
	<g id="HATCH_00000167364795291034225110000016350255380234464660_">
		<polygon class="st1" points="48.1172142,79.5695343 47.828186,79.5695343 36.0488358,79.5695343 35.9225349,79.5695343 
			35.6335068,79.5695343 34.1959534,79.5695343 33.3091431,78.6614151 34.2427139,78.6614151 34.9484558,78.6614151 
			35.2594948,78.6614151 47.3277855,78.6614151 47.6493149,78.6614151 49.2728233,78.6614151 50.2550011,79.5695343 
			48.243515,79.5695343 48.1172142,79.5695343 		"/>
	</g>
	<g id="HATCH_00000156548043572452363110000011433888201466657696_">
		<polygon class="st1" points="35.6824341,80.0531693 36.3948212,80.0531693 36.8041039,80.0531693 47.3277855,80.0531693 
			47.6493149,80.0531693 48.5895004,80.0531693 48.9987793,80.0531693 50.2550011,80.0531693 50.7780762,80.0531693 
			51.7322807,80.9354248 49.7260056,80.9354248 49.4168892,80.9354248 47.7201996,80.9354248 47.4110832,80.9354248 
			37.2653008,80.9354248 36.9561844,80.9354248 35.529789,80.9354248 35.2594948,80.658638 34.9503784,80.3420868 
			34.6682358,80.0531693 34.9513092,80.0531693 35.2594948,80.0531693 35.6824341,80.0531693 		"/>
	</g>
	<g id="LWPOLYLINE_00000135671038594319081240000008887082770229389698_">
		<line class="st2" x1="48.116539" y1="79.5671921" x2="47.8293114" y2="79.5671921"/>
	</g>
	<g id="LWPOLYLINE_00000044857870568694524690000003179481683192849585_">
		<line class="st2" x1="36.0472374" y1="79.5671921" x2="47.8293114" y2="79.5671921"/>
	</g>
	<g id="LWPOLYLINE_00000178188372542331916510000014161014776974534806_">
		<line class="st2" x1="36.0472374" y1="79.5671921" x2="35.9208565" y2="79.5671921"/>
	</g>
	<g id="LWPOLYLINE_00000033338316645288852770000002385036317907855785_">
		<line class="st2" x1="35.9208565" y1="79.5671921" x2="35.6336288" y2="79.5671921"/>
	</g>
	<g id="LWPOLYLINE_00000013879281420719827070000007126219825514668711_">
		<line class="st2" x1="35.6336288" y1="79.5671921" x2="34.1974907" y2="79.5671921"/>
	</g>
	<g id="LWPOLYLINE_00000057843412378367073010000016069660810341222289_">
		<line class="st2" x1="33.3070869" y1="78.6618881" x2="34.1974907" y2="79.5671921"/>
	</g>
	<g id="LWPOLYLINE_00000002353699248394916530000007756009469991010215_">
		<line class="st2" x1="33.3070869" y1="78.6618881" x2="34.2434464" y2="78.6618881"/>
	</g>
	<g id="LWPOLYLINE_00000121966318182280608830000013724025701614229693_">
		<line class="st2" x1="34.2434464" y1="78.6618881" x2="34.9500275" y2="78.6618881"/>
	</g>
	<g id="LWPOLYLINE_00000183223327135125370590000002505185326085987252_">
		<line class="st2" x1="34.9500275" y1="78.6618881" x2="35.260231" y2="78.6618881"/>
	</g>
	<g id="LWPOLYLINE_00000027597911767754211870000014554038072557886107_">
		<line class="st2" x1="35.260231" y1="78.6618881" x2="47.3295326" y2="78.6618881"/>
	</g>
	<g id="LWPOLYLINE_00000136373129062421830440000012730615610924208293_">
		<line class="st2" x1="47.3295326" y1="78.6618881" x2="47.6512299" y2="78.6618881"/>
	</g>
	<g id="LWPOLYLINE_00000009559688294049589830000010156367764271341995_">
		<line class="st2" x1="47.6512299" y1="78.6618881" x2="49.2711945" y2="78.6618881"/>
	</g>
	<g id="LWPOLYLINE_00000020398652051915095940000000686167289491839413_">
		<line class="st2" x1="50.2535095" y1="79.5671921" x2="49.2711945" y2="78.6618881"/>
	</g>
	<g id="LWPOLYLINE_00000026861131608423500970000013101885925330561981_">
		<line class="st2" x1="50.2535095" y1="79.5671921" x2="48.2429199" y2="79.5671921"/>
	</g>
	<g id="LWPOLYLINE_00000137100519342916175200000004111984161092456868_">
		<line class="st2" x1="48.2429199" y1="79.5671921" x2="48.116539" y2="79.5671921"/>
	</g>
	<g id="LWPOLYLINE_00000070803816955285988640000003790802438211523461_">
		<line class="st2" x1="35.6795845" y1="80.0515594" x2="36.3976555" y2="80.0515594"/>
	</g>
	<g id="LWPOLYLINE_00000023272191464395302320000012342001647874021548_">
		<line class="st2" x1="36.3976555" y1="80.0515594" x2="36.8055153" y2="80.0515594"/>
	</g>
	<g id="LWPOLYLINE_00000019638463837392188510000001656589945838998145_">
		<line class="st2" x1="36.8055153" y1="80.0515594" x2="47.3295326" y2="80.0515594"/>
	</g>
	<g id="LWPOLYLINE_00000093878214036854489010000011559413487953689021_">
		<line class="st2" x1="47.3295326" y1="80.0515594" x2="47.6512299" y2="80.0515594"/>
	</g>
	<g id="LWPOLYLINE_00000066480281156039876550000003634771858572208567_">
		<line class="st2" x1="47.6512299" y1="80.0515594" x2="48.5875931" y2="80.0515594"/>
	</g>
	<g id="LWPOLYLINE_00000152243766458749815670000012565104007521820090_">
		<line class="st2" x1="48.5875931" y1="80.0515594" x2="49.0011978" y2="80.0515594"/>
	</g>
	<g id="LWPOLYLINE_00000076567733268715401640000002372090658093478022_">
		<line class="st2" x1="49.0011978" y1="80.0515594" x2="50.2535095" y2="80.0515594"/>
	</g>
	<g id="LWPOLYLINE_00000067946456294357059860000002197802352723145889_">
		<line class="st2" x1="50.2535095" y1="80.0515594" x2="50.7762642" y2="80.0515594"/>
	</g>
	<g id="LWPOLYLINE_00000131341720408309434460000014178950556638768018_">
		<line class="st2" x1="50.7762642" y1="80.0515594" x2="51.7298622" y2="80.9337921"/>
	</g>
	<g id="LWPOLYLINE_00000167364194945832592400000010155309647600332208_">
		<line class="st2" x1="49.7250137" y1="80.9337921" x2="51.7298622" y2="80.9337921"/>
	</g>
	<g id="LWPOLYLINE_00000173841443988645125620000013328776720086734524_">
		<line class="st2" x1="49.4148064" y1="80.9337921" x2="49.7250137" y2="80.9337921"/>
	</g>
	<g id="LWPOLYLINE_00000085969117402171594850000009246645297116365215_">
		<line class="st2" x1="47.7201653" y1="80.9337921" x2="49.4148064" y2="80.9337921"/>
	</g>
	<g id="LWPOLYLINE_00000038392967622348047690000016269207512598478996_">
		<line class="st2" x1="47.4099579" y1="80.9337921" x2="47.7201653" y2="80.9337921"/>
	</g>
	<g id="LWPOLYLINE_00000106843969808643902290000005047923848752619392_">
		<line class="st2" x1="37.2650795" y1="80.9337921" x2="47.4099579" y2="80.9337921"/>
	</g>
	<g id="LWPOLYLINE_00000060742270404090755350000007318862763651999632_">
		<line class="st2" x1="36.9548759" y1="80.9337921" x2="37.2650795" y2="80.9337921"/>
	</g>
	<g id="LWPOLYLINE_00000130608767769909543460000002089161285408660876_">
		<line class="st2" x1="35.5302277" y1="80.9337921" x2="36.9548759" y2="80.9337921"/>
	</g>
	<g id="LWPOLYLINE_00000055703783221943537000000001967597893790873506_">
		<line class="st2" x1="35.260231" y1="80.6570129" x2="35.5302277" y2="80.9337921"/>
	</g>
	<g id="LWPOLYLINE_00000155862845012259248480000003733103919850128280_">
		<line class="st2" x1="34.9500275" y1="80.3398743" x2="35.260231" y2="80.6570129"/>
	</g>
	<g id="LWPOLYLINE_00000148644733690030912080000013905657802568410763_">
		<line class="st2" x1="34.6685448" y1="80.0515594" x2="34.9500275" y2="80.3398743"/>
	</g>
	<g id="LWPOLYLINE_00000170250823840890956750000017323708855392518071_">
		<line class="st2" x1="34.6685448" y1="80.0515594" x2="34.9500275" y2="80.0515594"/>
	</g>
	<g id="LWPOLYLINE_00000084519811627863480510000016534910827884442535_">
		<line class="st2" x1="34.9500275" y1="80.0515594" x2="35.260231" y2="80.0515594"/>
	</g>
	<g id="LWPOLYLINE_00000032650794559481725490000010045263899238817687_">
		<line class="st2" x1="35.260231" y1="80.0515594" x2="35.6795845" y2="80.0515594"/>
	</g>
	<g id="LWPOLYLINE_00000177449135599910991690000014483226932018206872_">
		<line class="st2" x1="35.260231" y1="82.8827896" x2="36.9548759" y2="84.6184311"/>
	</g>
	<g id="LWPOLYLINE_00000000917871091386230500000005110779181840737174_">
		<line class="st2" x1="36.9548759" y1="84.6184311" x2="36.9548759" y2="85.0393677"/>
	</g>
	<g id="LWPOLYLINE_00000092432451142490584200000015858192648487119256_">
		<line class="st2" x1="34.9500275" y1="82.9808121" x2="36.9548759" y2="85.0393677"/>
	</g>
	<g id="LWPOLYLINE_00000102541821607300166580000012889370420475754669_">
		<line class="st2" x1="34.9500275" y1="80.3398743" x2="34.9500275" y2="82.9808121"/>
	</g>
	<g id="LWPOLYLINE_00000176755526132603764290000015343696066047359120_">
		<line class="st2" x1="34.9500275" y1="80.3398743" x2="35.260231" y2="80.6570129"/>
	</g>
	<g id="LWPOLYLINE_00000088854187101148612180000002148340020346149555_">
		<line class="st2" x1="35.260231" y1="80.6570129" x2="35.260231" y2="82.8827896"/>
	</g>
	<g id="LWPOLYLINE_00000106857063574194964980000017716646837341014416_">
		<line class="st2" x1="47.7201653" y1="82.8827896" x2="49.4148064" y2="84.6184311"/>
	</g>
	<g id="LWPOLYLINE_00000151535115489476536400000002240910918844619185_">
		<line class="st2" x1="49.4148064" y1="84.6184311" x2="49.4148064" y2="85.0393677"/>
	</g>
	<g id="LWPOLYLINE_00000039846379652243753810000001764510221792826009_">
		<line class="st2" x1="47.4099579" y1="82.9808121" x2="49.4148064" y2="85.0393677"/>
	</g>
	<g id="LWPOLYLINE_00000134223296655341418810000007283807677021196218_">
		<line class="st2" x1="47.4099579" y1="80.9337921" x2="47.4099579" y2="82.9808121"/>
	</g>
	<g id="LWPOLYLINE_00000142895540618398675570000016779615746467925427_">
		<line class="st2" x1="47.4099579" y1="80.9337921" x2="47.7201653" y2="80.9337921"/>
	</g>
	<g id="LWPOLYLINE_00000129902682276420242860000013162070516676774023_">
		<line class="st2" x1="47.7201653" y1="80.9337921" x2="47.7201653" y2="82.8827896"/>
	</g>
	<g id="LWPOLYLINE_00000001653441535280377710000016351760244378120335_">
		<line class="st2" x1="49.4148064" y1="85.0393677" x2="49.7250137" y2="84.9355774"/>
	</g>
	<g id="LWPOLYLINE_00000106861897370457521880000012777048973100806312_">
		<line class="st2" x1="49.4148064" y1="84.6184311" x2="49.4148064" y2="85.0393677"/>
	</g>
	<g id="LWPOLYLINE_00000046311108059116332390000016563290930036437636_">
		<line class="st2" x1="49.4148064" y1="80.9337921" x2="49.4148064" y2="84.6184311"/>
	</g>
	<g id="LWPOLYLINE_00000170258033352772542620000007001957308496762499_">
		<line class="st2" x1="49.4148064" y1="80.9337921" x2="49.7250137" y2="80.9337921"/>
	</g>
	<g id="LWPOLYLINE_00000053544739646050688520000004539390264852157584_">
		<line class="st2" x1="49.7250137" y1="80.9337921" x2="49.7250137" y2="84.9355774"/>
	</g>
	<g id="LWPOLYLINE_00000050626387431156593390000006001229847334488240_">
		<line class="st2" x1="36.9548759" y1="85.0393677" x2="37.2650795" y2="84.9355774"/>
	</g>
	<g id="LWPOLYLINE_00000044856659209996235680000014590634108074902178_">
		<line class="st2" x1="36.9548759" y1="84.6184311" x2="36.9548759" y2="85.0393677"/>
	</g>
	<g id="LWPOLYLINE_00000136404013582099234670000000945987439537681026_">
		<line class="st2" x1="36.9548759" y1="80.9337921" x2="36.9548759" y2="84.6184311"/>
	</g>
	<g id="LWPOLYLINE_00000075851110583511330780000000108454085133255570_">
		<line class="st2" x1="36.9548759" y1="80.9337921" x2="37.2650795" y2="80.9337921"/>
	</g>
	<g id="LWPOLYLINE_00000176036900367496191220000016404835479316470926_">
		<line class="st2" x1="37.2650795" y1="80.9337921" x2="37.2650795" y2="84.9355774"/>
	</g>
	<g id="LWPOLYLINE_00000157998943304213779920000016103015983799148689_">
		<line class="st2" x1="47.8293114" y1="79.5671921" x2="48.5875931" y2="80.0515594"/>
	</g>
	<g id="LWPOLYLINE_00000116927770256422706430000007304302922009077414_">
		<line class="st2" x1="48.5875931" y1="80.0515594" x2="49.0011978" y2="80.0515594"/>
	</g>
	<g id="LWPOLYLINE_00000177465590375229036880000018092381299978711976_">
		<line class="st2" x1="48.2429199" y1="79.5671921" x2="49.0011978" y2="80.0515594"/>
	</g>
	<g id="LWPOLYLINE_00000002361802941528262950000006959950812021467836_">
		<line class="st2" x1="48.2429199" y1="79.5671921" x2="48.116539" y2="79.5671921"/>
	</g>
	<g id="LWPOLYLINE_00000000216176025163520010000006109585012468980392_">
		<line class="st2" x1="48.116539" y1="79.5671921" x2="47.8293114" y2="79.5671921"/>
	</g>
	<g id="LWPOLYLINE_00000145767869025346897240000007246543533976537740_">
		<line class="st2" x1="35.6336288" y1="79.5671921" x2="36.3976555" y2="80.0515594"/>
	</g>
	<g id="LWPOLYLINE_00000119798292255935313890000004527646263395927942_">
		<line class="st2" x1="36.3976555" y1="80.0515594" x2="36.8055153" y2="80.0515594"/>
	</g>
	<g id="LWPOLYLINE_00000108296596208944412290000012150738592778690946_">
		<line class="st2" x1="36.0472374" y1="79.5671921" x2="36.8055153" y2="80.0515594"/>
	</g>
	<g id="LWPOLYLINE_00000124862202387502182630000001889922210040655016_">
		<line class="st2" x1="36.0472374" y1="79.5671921" x2="35.9208565" y2="79.5671921"/>
	</g>
	<g id="LWPOLYLINE_00000021813825638044218600000009009164429792488096_">
		<line class="st2" x1="35.9208565" y1="79.5671921" x2="35.6336288" y2="79.5671921"/>
	</g>
	<g id="LWPOLYLINE_00000150061479294271998960000005699350717796396682_">
		<line class="st2" x1="47.3295326" y1="80.0515594" x2="47.6512299" y2="80.0515594"/>
	</g>
	<g id="LWPOLYLINE_00000115503642428602500750000004740020675623250097_">
		<line class="st2" x1="47.3295326" y1="79.5671921" x2="47.3295326" y2="80.0515594"/>
	</g>
	<g id="LWPOLYLINE_00000049184630400605804760000001362076646994601614_">
		<line class="st2" x1="47.3295326" y1="79.5671921" x2="47.6512299" y2="79.5671921"/>
	</g>
	<g id="LWPOLYLINE_00000107548000066896680790000007195236680445068448_">
		<line class="st2" x1="47.6512299" y1="79.5671921" x2="47.6512299" y2="80.0515594"/>
	</g>
	<g id="LWPOLYLINE_00000183956171815339541690000000708818615064391074_">
		<line class="st2" x1="35.260231" y1="80.0515594" x2="34.9500275" y2="80.0515594"/>
	</g>
	<g id="LWPOLYLINE_00000071524670974604475910000014309382937228264361_">
		<line class="st2" x1="35.260231" y1="79.5671921" x2="35.260231" y2="80.0515594"/>
	</g>
	<g id="LWPOLYLINE_00000024680588799681148380000003311074334145533629_">
		<line class="st2" x1="34.9557724" y1="79.5671921" x2="35.260231" y2="79.5671921"/>
	</g>
	<g id="LWPOLYLINE_00000011008356733394207030000014650574227782237096_">
		<line class="st2" x1="34.9557724" y1="79.5671921" x2="34.9500275" y2="80.0515594"/>
	</g>
	<g id="LWPOLYLINE_00000155860446624220195050000016480200627021036947_">
		<polyline class="st2" points="47.8293114,79.5671921 48.116539,79.5671921 48.2429199,79.5671921 		"/>
	</g>
	<g id="LWPOLYLINE_00000125589219481919053910000012902933544229872025_">
		<polyline class="st2" points="36.0472374,79.5671921 35.6336288,79.5671921 35.260231,79.5671921 34.9557724,79.5671921 
			34.1974907,79.5671921 		"/>
	</g>
	<g id="LWPOLYLINE_00000011033227191554777900000007215120878461066388_">
		<line class="st2" x1="48.2429199" y1="79.5671921" x2="50.2535095" y2="79.5671921"/>
	</g>
	<g id="LWPOLYLINE_00000152974405880112878900000007284617295652889233_">
		<polyline class="st2" points="36.0472374,79.5671921 47.3295326,79.5671921 47.6512299,79.5671921 47.8293114,79.5671921 		"/>
	</g>
	<g id="LWPOLYLINE_00000142150797599701125910000010204887630615570567_">
		<line class="st2" x1="48.2429199" y1="79.5671921" x2="49.0011978" y2="80.0515594"/>
	</g>
	<g id="LWPOLYLINE_00000157998990643375422590000010820677179793783467_">
		<line class="st2" x1="47.8293114" y1="79.5671921" x2="48.5875931" y2="80.0515594"/>
	</g>
	<g id="LWPOLYLINE_00000139976549151154525340000008348577123982462892_">
		<line class="st2" x1="36.0472374" y1="79.5671921" x2="36.8055153" y2="80.0515594"/>
	</g>
	<g id="LWPOLYLINE_00000138539389349480024380000011395301746557309373_">
		<line class="st2" x1="35.6336288" y1="79.5671921" x2="36.3976555" y2="80.0515594"/>
	</g>
	<g id="LWPOLYLINE_00000164509627387988651550000015532809873343949969_">
		<line class="st2" x1="47.6512299" y1="79.5671921" x2="47.6512299" y2="80.0515594"/>
	</g>
	<g id="LWPOLYLINE_00000146494190462525970240000000425211803929102493_">
		<line class="st2" x1="47.3295326" y1="79.5671921" x2="47.3295326" y2="80.0515594"/>
	</g>
	<g id="LWPOLYLINE_00000099622922328834001230000002822553584067098548_">
		<line class="st2" x1="35.260231" y1="79.5671921" x2="35.260231" y2="80.0515594"/>
	</g>
	<g id="LWPOLYLINE_00000114039003084123341340000014594105725240633745_">
		<line class="st2" x1="34.9557724" y1="79.5671921" x2="34.9500275" y2="80.0515594"/>
	</g>
	<g id="LWPOLYLINE_00000134948311460371527340000010224918600943795331_">
		<line class="st2" x1="36.9548759" y1="80.9337921" x2="36.9548759" y2="84.6184311"/>
	</g>
	<g id="LWPOLYLINE_00000121973336763364571950000013618247787792627887_">
		<line class="st2" x1="36.9548759" y1="84.6184311" x2="36.9548759" y2="85.0393677"/>
	</g>
	<g id="LWPOLYLINE_00000119118868271942942020000006208199332790387607_">
		<line class="st2" x1="35.260231" y1="80.6570129" x2="35.260231" y2="82.8827896"/>
	</g>
	<g id="LWPOLYLINE_00000119119803902275980050000005962658507533351065_">
		<line class="st2" x1="35.260231" y1="82.8827896" x2="36.9548759" y2="84.6184311"/>
	</g>
	<g id="LWPOLYLINE_00000021829342448613009070000015091928093493685154_">
		<line class="st2" x1="34.9500275" y1="82.9808121" x2="36.9548759" y2="85.0393677"/>
	</g>
	<g id="LWPOLYLINE_00000118399305324554230550000015229556009370897796_">
		<line class="st2" x1="34.9500275" y1="80.3398743" x2="34.9500275" y2="82.9808121"/>
	</g>
	<g id="LWPOLYLINE_00000036947313592459908570000012168206213903492031_">
		<line class="st2" x1="34.6685448" y1="80.0515594" x2="34.9500275" y2="80.3398743"/>
	</g>
	<g id="LWPOLYLINE_00000165210161826069425270000014957771831295271592_">
		<line class="st2" x1="34.9500275" y1="80.3398743" x2="35.260231" y2="80.6570129"/>
	</g>
	<g id="LWPOLYLINE_00000029727084380448272750000007071501938128684976_">
		<line class="st2" x1="35.260231" y1="80.6570129" x2="35.5302277" y2="80.9337921"/>
	</g>
	<g id="LWPOLYLINE_00000049916285321201074800000007955978906714171816_">
		<line class="st2" x1="33.3070869" y1="78.6618881" x2="34.1974907" y2="79.5671921"/>
	</g>
	<g id="LWPOLYLINE_00000148634589053636351160000001982571611094723206_">
		<line class="st2" x1="33.3070869" y1="78.6618881" x2="34.1974907" y2="79.5671921"/>
	</g>
	<g id="LWPOLYLINE_00000082356909597967090450000011866650417143626928_">
		<line class="st2" x1="34.2434464" y1="78.6618881" x2="34.9500275" y2="78.6618881"/>
	</g>
	<g id="LWPOLYLINE_00000078761300579060018880000006201844241832885415_">
		<line class="st2" x1="34.6685448" y1="80.0515594" x2="34.9500275" y2="80.0515594"/>
	</g>
	<g id="LWPOLYLINE_00000041276344077853073290000007699959746767585158_">
		<line class="st2" x1="34.9500275" y1="80.0515594" x2="35.260231" y2="80.0515594"/>
	</g>
	<g id="LWPOLYLINE_00000156582929198124961750000002621860281139932556_">
		<line class="st2" x1="35.260231" y1="80.0515594" x2="35.6795845" y2="80.0515594"/>
	</g>
	<g id="LWPOLYLINE_00000081636534532226224070000017983875330355964330_">
		<line class="st2" x1="35.5302277" y1="80.9337921" x2="36.9548759" y2="80.9337921"/>
	</g>
	<g id="LWPOLYLINE_00000083069708792788532660000003707048756315839406_">
		<line class="st2" x1="36.9548759" y1="80.9337921" x2="37.2650795" y2="80.9337921"/>
	</g>
	<g id="LWPOLYLINE_00000118374115593635644670000016616641066371148942_">
		<line class="st2" x1="37.2650795" y1="80.9337921" x2="47.4099579" y2="80.9337921"/>
	</g>
	<g id="LWPOLYLINE_00000086659022842729675140000007643072265383352740_">
		<line class="st2" x1="47.4099579" y1="80.9337921" x2="47.7201653" y2="80.9337921"/>
	</g>
	<g id="LWPOLYLINE_00000099655559994800380050000005225705766925124238_">
		<line class="st2" x1="47.7201653" y1="80.9337921" x2="49.4148064" y2="80.9337921"/>
	</g>
	<g id="LWPOLYLINE_00000005974722385629324400000017949806999873205909_">
		<line class="st2" x1="49.4148064" y1="80.9337921" x2="49.7250137" y2="80.9337921"/>
	</g>
	<g id="LWPOLYLINE_00000121974638346439948640000011828786568484169916_">
		<line class="st2" x1="49.7250137" y1="80.9337921" x2="51.7298622" y2="80.9337921"/>
	</g>
	<g id="LWPOLYLINE_00000138561620858986354840000000814779413293692808_">
		<line class="st2" x1="50.7762642" y1="80.0515594" x2="51.7298622" y2="80.9337921"/>
	</g>
	<g id="LWPOLYLINE_00000040572149746552481090000011608601624232360627_">
		<line class="st2" x1="33.3070869" y1="78.6618881" x2="34.2434464" y2="78.6618881"/>
	</g>
	<g id="LWPOLYLINE_00000114781741941883103960000012625533067432569492_">
		<line class="st2" x1="50.2535095" y1="79.5671921" x2="49.2711945" y2="78.6618881"/>
	</g>
	<g id="LWPOLYLINE_00000053507472023402383570000012455434097682513812_">
		<line class="st2" x1="34.9500275" y1="78.6618881" x2="35.260231" y2="78.6618881"/>
	</g>
	<g id="LWPOLYLINE_00000000199144655099732430000002984017105274899374_">
		<line class="st2" x1="35.260231" y1="78.6618881" x2="47.3295326" y2="78.6618881"/>
	</g>
	<g id="LWPOLYLINE_00000114764051169794704200000013059019727888875657_">
		<line class="st2" x1="47.3295326" y1="78.6618881" x2="47.6512299" y2="78.6618881"/>
	</g>
	<g id="LWPOLYLINE_00000033343611458269317940000008634140807244944562_">
		<line class="st2" x1="47.6512299" y1="78.6618881" x2="49.2711945" y2="78.6618881"/>
	</g>
	<g id="LWPOLYLINE_00000113327010582227574380000003560579339418775714_">
		<line class="st2" x1="35.6795845" y1="80.0515594" x2="36.3976555" y2="80.0515594"/>
	</g>
	<g id="LWPOLYLINE_00000137118712173474717210000013811230711642987673_">
		<line class="st2" x1="36.3976555" y1="80.0515594" x2="36.8055153" y2="80.0515594"/>
	</g>
	<g id="LWPOLYLINE_00000052794699470935794180000015392337969636900270_">
		<line class="st2" x1="36.8055153" y1="80.0515594" x2="47.3295326" y2="80.0515594"/>
	</g>
	<g id="LWPOLYLINE_00000139989011439220259830000005232983629926430344_">
		<line class="st2" x1="47.3295326" y1="80.0515594" x2="47.6512299" y2="80.0515594"/>
	</g>
	<g id="LWPOLYLINE_00000010993476365829437840000012249217340349981835_">
		<line class="st2" x1="47.6512299" y1="80.0515594" x2="48.5875931" y2="80.0515594"/>
	</g>
	<g id="LWPOLYLINE_00000067950468250782060410000016484689542302428058_">
		<line class="st2" x1="48.5875931" y1="80.0515594" x2="49.0011978" y2="80.0515594"/>
	</g>
	<g id="LWPOLYLINE_00000109722578003193805070000002945490734864316093_">
		<line class="st2" x1="49.0011978" y1="80.0515594" x2="50.2535095" y2="80.0515594"/>
	</g>
	<g id="LWPOLYLINE_00000006702990045925515440000010690661887027255738_">
		<line class="st2" x1="50.2535095" y1="80.0515594" x2="50.7762642" y2="80.0515594"/>
	</g>
	<g id="LWPOLYLINE_00000104706888791381314060000007024795506143595450_">
		<line class="st2" x1="37.2650795" y1="80.9337921" x2="37.2650795" y2="84.9355774"/>
	</g>
	<g id="LWPOLYLINE_00000097500574006933749010000010252949762359869106_">
		<line class="st2" x1="36.9548759" y1="85.0393677" x2="37.2650795" y2="84.9355774"/>
	</g>
	<g id="LWPOLYLINE_00000066500927398165741910000004030312457855572613_">
		<line class="st2" x1="49.4148064" y1="80.9337921" x2="49.4148064" y2="84.6184311"/>
	</g>
	<g id="LWPOLYLINE_00000075866463590130106660000000557045817593511058_">
		<line class="st2" x1="49.4148064" y1="84.6184311" x2="49.4148064" y2="85.0393677"/>
	</g>
	<g id="LWPOLYLINE_00000153671473748668082430000000260172831282296481_">
		<line class="st2" x1="47.7201653" y1="82.8827896" x2="49.4148064" y2="84.6184311"/>
	</g>
	<g id="LWPOLYLINE_00000004508102099814245990000006714962553818064819_">
		<line class="st2" x1="47.4099579" y1="82.9808121" x2="49.4148064" y2="85.0393677"/>
	</g>
	<g id="LWPOLYLINE_00000104671799914162320120000013720077097024352701_">
		<line class="st2" x1="49.7250137" y1="80.9337921" x2="49.7250137" y2="84.9355774"/>
	</g>
	<g id="LWPOLYLINE_00000036214835724121483200000007707243825848296096_">
		<line class="st2" x1="49.4148064" y1="85.0393677" x2="49.7250137" y2="84.9355774"/>
	</g>
	<g id="LWPOLYLINE_00000044898575358881130580000000116777343864258229_">
		<line class="st2" x1="47.7201653" y1="80.9337921" x2="47.7201653" y2="82.8827896"/>
	</g>
	<g id="LWPOLYLINE_00000166658564899063969740000014040641438812030384_">
		<line class="st2" x1="47.4099579" y1="80.9337921" x2="47.4099579" y2="82.9808121"/>
	</g>
</g>
</svg>
